<svg width="281" height="283" viewBox="0 0 320 283" fill="none" xmlns="http://www.w3.org/2000/svg">
    <g filter="url(#filter0_d_14_1509)">
        <mask id="path-1-inside-1_14_1509" fill="white">
            <path fill-rule="evenodd" clip-rule="evenodd"
                d="M115.228 61L103.404 50L91.5809 61H50C33.4315 61 20 74.4315 20 91V183C20 199.569 33.4315 213 50 213H270C286.569 213 300 199.569 300 183V91C300 74.4315 286.569 61 270 61H115.228Z" />
        </mask>
        <path fill-rule="evenodd" clip-rule="evenodd"
            d="M115.228 61L103.404 50L91.5809 61H50C33.4315 61 20 74.4315 20 91V183C20 199.569 33.4315 213 50 213H270C286.569 213 300 199.569 300 183V91C300 74.4315 286.569 61 270 61H115.228Z"
            fill="url(#paint0_linear_14_1509)" />
        <path
            d="M103.404 50L104.085 49.2679L103.404 48.6341L102.723 49.2679L103.404 50ZM115.228 61L114.547 61.7321L114.834 62H115.228V61ZM91.5809 61V62H91.9742L92.2621 61.7321L91.5809 61ZM102.723 50.7321L114.547 61.7321L115.909 60.2679L104.085 49.2679L102.723 50.7321ZM92.2621 61.7321L104.085 50.7321L102.723 49.2679L90.8998 60.2679L92.2621 61.7321ZM50 62H91.5809V60H50V62ZM21 91C21 74.9837 33.9837 62 50 62V60C32.8792 60 19 73.8792 19 91H21ZM21 183V91H19V183H21ZM50 212C33.9837 212 21 199.016 21 183H19C19 200.121 32.8792 214 50 214V212ZM270 212H50V214H270V212ZM299 183C299 199.016 286.016 212 270 212V214C287.121 214 301 200.121 301 183H299ZM299 91V183H301V91H299ZM270 62C286.016 62 299 74.9837 299 91H301C301 73.8792 287.121 60 270 60V62ZM115.228 62H270V60H115.228V62Z"
            fill="black" mask="url(#path-1-inside-1_14_1509)" />
    </g>
    <path
        d="M52.479 99.3262V100.399H47.0923V99.3262H52.479ZM47.2974 95.0469V105H45.978V95.0469H47.2974ZM53.6274 95.0469V105H52.3149V95.0469H53.6274ZM58.8501 105.137C58.3351 105.137 57.868 105.05 57.4487 104.877C57.034 104.699 56.6763 104.451 56.3755 104.132C56.0793 103.813 55.8514 103.435 55.6919 102.997C55.5324 102.56 55.4526 102.081 55.4526 101.562V101.274C55.4526 100.673 55.5415 100.137 55.7192 99.668C55.897 99.194 56.1385 98.793 56.4438 98.4648C56.7492 98.1367 57.0955 97.8883 57.4829 97.7197C57.8703 97.5511 58.2713 97.4668 58.686 97.4668C59.2147 97.4668 59.6704 97.5579 60.0532 97.7402C60.4406 97.9225 60.7573 98.1777 61.0034 98.5059C61.2495 98.8294 61.4318 99.2122 61.5503 99.6543C61.6688 100.092 61.728 100.57 61.728 101.09V101.657H56.2046V100.625H60.4634V100.529C60.4451 100.201 60.3768 99.8822 60.2583 99.5723C60.1444 99.2624 59.9621 99.0072 59.7114 98.8066C59.4608 98.6061 59.119 98.5059 58.686 98.5059C58.3989 98.5059 58.1346 98.5674 57.8931 98.6904C57.6515 98.8089 57.4442 98.9867 57.271 99.2236C57.0978 99.4606 56.9634 99.75 56.8677 100.092C56.772 100.434 56.7241 100.828 56.7241 101.274V101.562C56.7241 101.912 56.772 102.243 56.8677 102.553C56.9679 102.858 57.1115 103.127 57.2983 103.359C57.4897 103.592 57.7199 103.774 57.9888 103.906C58.2622 104.038 58.5721 104.104 58.9185 104.104C59.3651 104.104 59.7433 104.013 60.0532 103.831C60.3631 103.649 60.6343 103.405 60.8667 103.1L61.6323 103.708C61.4728 103.95 61.27 104.18 61.0239 104.398C60.7778 104.617 60.4748 104.795 60.1147 104.932C59.7593 105.068 59.3377 105.137 58.8501 105.137ZM64.5786 94.5V105H63.3071V94.5H64.5786ZM67.9829 94.5V105H66.7114V94.5H67.9829ZM69.6782 101.384V101.227C69.6782 100.693 69.7557 100.199 69.9106 99.7432C70.0656 99.2829 70.2889 98.8841 70.5806 98.5469C70.8722 98.2051 71.2254 97.9408 71.6401 97.7539C72.0549 97.5625 72.5197 97.4668 73.0347 97.4668C73.5542 97.4668 74.0213 97.5625 74.436 97.7539C74.8553 97.9408 75.2108 98.2051 75.5024 98.5469C75.7987 98.8841 76.0243 99.2829 76.1792 99.7432C76.3341 100.199 76.4116 100.693 76.4116 101.227V101.384C76.4116 101.917 76.3341 102.411 76.1792 102.867C76.0243 103.323 75.7987 103.722 75.5024 104.063C75.2108 104.401 74.8576 104.665 74.4429 104.856C74.0327 105.043 73.5679 105.137 73.0483 105.137C72.5288 105.137 72.0617 105.043 71.647 104.856C71.2323 104.665 70.8768 104.401 70.5806 104.063C70.2889 103.722 70.0656 103.323 69.9106 102.867C69.7557 102.411 69.6782 101.917 69.6782 101.384ZM70.9429 101.227V101.384C70.9429 101.753 70.9862 102.102 71.0728 102.43C71.1593 102.753 71.2892 103.04 71.4624 103.291C71.6401 103.542 71.8612 103.74 72.1255 103.886C72.3898 104.027 72.6974 104.098 73.0483 104.098C73.3947 104.098 73.6978 104.027 73.9575 103.886C74.2218 103.74 74.4406 103.542 74.6138 103.291C74.7869 103.04 74.9168 102.753 75.0034 102.43C75.0946 102.102 75.1401 101.753 75.1401 101.384V101.227C75.1401 100.862 75.0946 100.518 75.0034 100.194C74.9168 99.8662 74.7847 99.5768 74.6069 99.3262C74.4338 99.071 74.215 98.8704 73.9507 98.7246C73.6909 98.5788 73.3856 98.5059 73.0347 98.5059C72.6883 98.5059 72.383 98.5788 72.1187 98.7246C71.8589 98.8704 71.6401 99.071 71.4624 99.3262C71.2892 99.5768 71.1593 99.8662 71.0728 100.194C70.9862 100.518 70.9429 100.862 70.9429 101.227ZM79.5015 95.0469L79.4126 102.19H78.271L78.1753 95.0469H79.5015ZM78.1343 104.364C78.1343 104.159 78.1958 103.986 78.3188 103.845C78.4465 103.703 78.6333 103.633 78.8794 103.633C79.1209 103.633 79.3055 103.703 79.4331 103.845C79.5653 103.986 79.6313 104.159 79.6313 104.364C79.6313 104.56 79.5653 104.729 79.4331 104.87C79.3055 105.011 79.1209 105.082 78.8794 105.082C78.6333 105.082 78.4465 105.011 78.3188 104.87C78.1958 104.729 78.1343 104.56 78.1343 104.364ZM88.6753 95.0469V105H87.3765V95.0469H88.6753ZM91.8745 95.0469V96.127H84.1841V95.0469H91.8745ZM92.1411 101.384V101.227C92.1411 100.693 92.2186 100.199 92.3735 99.7432C92.5285 99.2829 92.7518 98.8841 93.0435 98.5469C93.3351 98.2051 93.6883 97.9408 94.103 97.7539C94.5177 97.5625 94.9826 97.4668 95.4976 97.4668C96.0171 97.4668 96.4842 97.5625 96.8989 97.7539C97.3182 97.9408 97.6737 98.2051 97.9653 98.5469C98.2616 98.8841 98.4871 99.2829 98.6421 99.7432C98.797 100.199 98.8745 100.693 98.8745 101.227V101.384C98.8745 101.917 98.797 102.411 98.6421 102.867C98.4871 103.323 98.2616 103.722 97.9653 104.063C97.6737 104.401 97.3205 104.665 96.9058 104.856C96.4956 105.043 96.0308 105.137 95.5112 105.137C94.9917 105.137 94.5246 105.043 94.1099 104.856C93.6951 104.665 93.3397 104.401 93.0435 104.063C92.7518 103.722 92.5285 103.323 92.3735 102.867C92.2186 102.411 92.1411 101.917 92.1411 101.384ZM93.4058 101.227V101.384C93.4058 101.753 93.4491 102.102 93.5356 102.43C93.6222 102.753 93.7521 103.04 93.9253 103.291C94.103 103.542 94.3241 103.74 94.5884 103.886C94.8527 104.027 95.1603 104.098 95.5112 104.098C95.8576 104.098 96.1606 104.027 96.4204 103.886C96.6847 103.74 96.9035 103.542 97.0767 103.291C97.2498 103.04 97.3797 102.753 97.4663 102.43C97.5575 102.102 97.603 101.753 97.603 101.384V101.227C97.603 100.862 97.5575 100.518 97.4663 100.194C97.3797 99.8662 97.2476 99.5768 97.0698 99.3262C96.8966 99.071 96.6779 98.8704 96.4136 98.7246C96.1538 98.5788 95.8485 98.5059 95.4976 98.5059C95.1512 98.5059 94.8459 98.5788 94.5815 98.7246C94.3218 98.8704 94.103 99.071 93.9253 99.3262C93.7521 99.5768 93.6222 99.8662 93.5356 100.194C93.4491 100.518 93.4058 100.862 93.4058 101.227ZM108.725 97.6035H109.874V104.843C109.874 105.494 109.741 106.05 109.477 106.511C109.213 106.971 108.844 107.32 108.37 107.557C107.9 107.798 107.358 107.919 106.743 107.919C106.487 107.919 106.187 107.878 105.84 107.796C105.499 107.718 105.161 107.584 104.829 107.393C104.5 107.206 104.225 106.953 104.001 106.634L104.665 105.882C104.974 106.256 105.298 106.515 105.635 106.661C105.977 106.807 106.314 106.88 106.647 106.88C107.048 106.88 107.394 106.805 107.686 106.654C107.978 106.504 108.203 106.281 108.363 105.984C108.527 105.693 108.609 105.333 108.609 104.904V99.2305L108.725 97.6035ZM103.632 101.384V101.24C103.632 100.675 103.698 100.162 103.831 99.7021C103.967 99.2373 104.161 98.8385 104.412 98.5059C104.667 98.1732 104.974 97.918 105.334 97.7402C105.694 97.5579 106.1 97.4668 106.551 97.4668C107.016 97.4668 107.422 97.5488 107.768 97.7129C108.119 97.8724 108.415 98.1071 108.657 98.417C108.903 98.7223 109.097 99.0915 109.238 99.5244C109.379 99.9574 109.477 100.447 109.532 100.994V101.623C109.482 102.165 109.384 102.653 109.238 103.086C109.097 103.519 108.903 103.888 108.657 104.193C108.415 104.499 108.119 104.733 107.768 104.897C107.417 105.057 107.007 105.137 106.538 105.137C106.096 105.137 105.694 105.043 105.334 104.856C104.979 104.67 104.674 104.408 104.418 104.07C104.163 103.733 103.967 103.337 103.831 102.881C103.698 102.421 103.632 101.922 103.632 101.384ZM104.897 101.24V101.384C104.897 101.753 104.933 102.099 105.006 102.423C105.084 102.746 105.2 103.031 105.355 103.277C105.514 103.523 105.717 103.717 105.963 103.858C106.209 103.995 106.503 104.063 106.845 104.063C107.264 104.063 107.611 103.975 107.884 103.797C108.158 103.619 108.374 103.384 108.534 103.093C108.698 102.801 108.825 102.484 108.917 102.143V100.495C108.866 100.244 108.789 100.003 108.684 99.7705C108.584 99.5335 108.452 99.3239 108.288 99.1416C108.128 98.9548 107.93 98.8066 107.693 98.6973C107.456 98.5879 107.178 98.5332 106.859 98.5332C106.513 98.5332 106.214 98.6061 105.963 98.752C105.717 98.8932 105.514 99.0892 105.355 99.3398C105.2 99.5859 105.084 99.873 105.006 100.201C104.933 100.525 104.897 100.871 104.897 101.24ZM114.864 105.137C114.349 105.137 113.882 105.05 113.462 104.877C113.048 104.699 112.69 104.451 112.389 104.132C112.093 103.813 111.865 103.435 111.706 102.997C111.546 102.56 111.466 102.081 111.466 101.562V101.274C111.466 100.673 111.555 100.137 111.733 99.668C111.911 99.194 112.152 98.793 112.458 98.4648C112.763 98.1367 113.109 97.8883 113.497 97.7197C113.884 97.5511 114.285 97.4668 114.7 97.4668C115.228 97.4668 115.684 97.5579 116.067 97.7402C116.454 97.9225 116.771 98.1777 117.017 98.5059C117.263 98.8294 117.445 99.2122 117.564 99.6543C117.682 100.092 117.742 100.57 117.742 101.09V101.657H112.218V100.625H116.477V100.529C116.459 100.201 116.39 99.8822 116.272 99.5723C116.158 99.2624 115.976 99.0072 115.725 98.8066C115.474 98.6061 115.133 98.5059 114.7 98.5059C114.413 98.5059 114.148 98.5674 113.907 98.6904C113.665 98.8089 113.458 98.9867 113.285 99.2236C113.111 99.4606 112.977 99.75 112.881 100.092C112.786 100.434 112.738 100.828 112.738 101.274V101.562C112.738 101.912 112.786 102.243 112.881 102.553C112.982 102.858 113.125 103.127 113.312 103.359C113.503 103.592 113.734 103.774 114.002 103.906C114.276 104.038 114.586 104.104 114.932 104.104C115.379 104.104 115.757 104.013 116.067 103.831C116.377 103.649 116.648 103.405 116.88 103.1L117.646 103.708C117.486 103.95 117.284 104.18 117.038 104.398C116.792 104.617 116.488 104.795 116.128 104.932C115.773 105.068 115.351 105.137 114.864 105.137ZM122.315 97.6035V98.5742H118.316V97.6035H122.315ZM119.669 95.8057H120.934V103.168C120.934 103.419 120.973 103.608 121.05 103.735C121.128 103.863 121.228 103.947 121.351 103.988C121.474 104.029 121.606 104.05 121.748 104.05C121.852 104.05 121.962 104.041 122.076 104.022C122.194 104 122.283 103.981 122.342 103.968L122.349 105C122.249 105.032 122.117 105.062 121.953 105.089C121.793 105.121 121.599 105.137 121.372 105.137C121.062 105.137 120.777 105.075 120.517 104.952C120.257 104.829 120.05 104.624 119.895 104.337C119.745 104.045 119.669 103.653 119.669 103.161V95.8057ZM131.578 103.038C131.578 102.856 131.537 102.687 131.455 102.532C131.377 102.373 131.215 102.229 130.969 102.102C130.728 101.969 130.363 101.855 129.875 101.76C129.465 101.673 129.094 101.571 128.761 101.452C128.433 101.334 128.153 101.19 127.92 101.021C127.693 100.853 127.517 100.655 127.394 100.427C127.271 100.199 127.209 99.9323 127.209 99.627C127.209 99.3353 127.273 99.0596 127.401 98.7998C127.533 98.54 127.718 98.3099 127.955 98.1094C128.196 97.9089 128.486 97.7516 128.823 97.6377C129.16 97.5238 129.536 97.4668 129.951 97.4668C130.543 97.4668 131.049 97.5716 131.468 97.7812C131.888 97.9909 132.209 98.2712 132.432 98.6221C132.655 98.9684 132.767 99.3535 132.767 99.7773H131.502C131.502 99.5723 131.441 99.374 131.318 99.1826C131.199 98.9867 131.024 98.8249 130.792 98.6973C130.564 98.5697 130.283 98.5059 129.951 98.5059C129.6 98.5059 129.315 98.5605 129.096 98.6699C128.882 98.7747 128.725 98.9092 128.625 99.0732C128.529 99.2373 128.481 99.4105 128.481 99.5928C128.481 99.7295 128.504 99.8525 128.549 99.9619C128.599 100.067 128.686 100.165 128.809 100.256C128.932 100.342 129.105 100.424 129.329 100.502C129.552 100.579 129.837 100.657 130.183 100.734C130.789 100.871 131.288 101.035 131.68 101.227C132.072 101.418 132.364 101.653 132.555 101.931C132.747 102.209 132.842 102.546 132.842 102.942C132.842 103.266 132.774 103.562 132.637 103.831C132.505 104.1 132.311 104.332 132.056 104.528C131.806 104.72 131.505 104.87 131.154 104.979C130.807 105.084 130.418 105.137 129.985 105.137C129.333 105.137 128.782 105.021 128.331 104.788C127.879 104.556 127.538 104.255 127.305 103.886C127.073 103.517 126.957 103.127 126.957 102.717H128.228C128.246 103.063 128.347 103.339 128.529 103.544C128.711 103.744 128.934 103.888 129.199 103.975C129.463 104.057 129.725 104.098 129.985 104.098C130.331 104.098 130.621 104.052 130.853 103.961C131.09 103.87 131.27 103.744 131.393 103.585C131.516 103.425 131.578 103.243 131.578 103.038ZM137.6 97.6035V98.5742H133.601V97.6035H137.6ZM134.955 95.8057H136.219V103.168C136.219 103.419 136.258 103.608 136.335 103.735C136.413 103.863 136.513 103.947 136.636 103.988C136.759 104.029 136.891 104.05 137.033 104.05C137.138 104.05 137.247 104.041 137.361 104.022C137.479 104 137.568 103.981 137.627 103.968L137.634 105C137.534 105.032 137.402 105.062 137.238 105.089C137.078 105.121 136.885 105.137 136.657 105.137C136.347 105.137 136.062 105.075 135.802 104.952C135.542 104.829 135.335 104.624 135.18 104.337C135.03 104.045 134.955 103.653 134.955 103.161V95.8057ZM143.445 103.735V99.9277C143.445 99.6361 143.386 99.3831 143.267 99.1689C143.153 98.9502 142.98 98.7816 142.748 98.6631C142.515 98.5446 142.228 98.4854 141.886 98.4854C141.567 98.4854 141.287 98.54 141.045 98.6494C140.808 98.7588 140.622 98.9023 140.485 99.0801C140.353 99.2578 140.287 99.4492 140.287 99.6543H139.022C139.022 99.39 139.09 99.1279 139.227 98.8682C139.364 98.6084 139.56 98.3737 139.815 98.1641C140.075 97.9499 140.385 97.7812 140.745 97.6582C141.109 97.5306 141.515 97.4668 141.961 97.4668C142.499 97.4668 142.973 97.5579 143.383 97.7402C143.798 97.9225 144.122 98.1982 144.354 98.5674C144.591 98.932 144.709 99.39 144.709 99.9414V103.387C144.709 103.633 144.73 103.895 144.771 104.173C144.817 104.451 144.883 104.69 144.969 104.891V105H143.65C143.586 104.854 143.536 104.66 143.5 104.419C143.463 104.173 143.445 103.945 143.445 103.735ZM143.664 100.516L143.677 101.404H142.399C142.039 101.404 141.718 101.434 141.435 101.493C141.153 101.548 140.916 101.632 140.724 101.746C140.533 101.86 140.387 102.004 140.287 102.177C140.186 102.345 140.136 102.544 140.136 102.771C140.136 103.004 140.189 103.216 140.293 103.407C140.398 103.599 140.556 103.751 140.765 103.865C140.979 103.975 141.241 104.029 141.551 104.029C141.939 104.029 142.28 103.947 142.577 103.783C142.873 103.619 143.108 103.419 143.281 103.182C143.458 102.945 143.554 102.715 143.568 102.491L144.108 103.1C144.076 103.291 143.989 103.503 143.848 103.735C143.707 103.968 143.518 104.191 143.281 104.405C143.048 104.615 142.77 104.79 142.447 104.932C142.128 105.068 141.768 105.137 141.367 105.137C140.865 105.137 140.426 105.039 140.047 104.843C139.674 104.647 139.382 104.385 139.172 104.057C138.967 103.724 138.865 103.353 138.865 102.942C138.865 102.546 138.942 102.197 139.097 101.896C139.252 101.591 139.475 101.338 139.767 101.138C140.059 100.933 140.41 100.778 140.82 100.673C141.23 100.568 141.688 100.516 142.194 100.516H143.664ZM147.963 98.7656V105H146.699V97.6035H147.929L147.963 98.7656ZM150.274 97.5625L150.267 98.7383C150.162 98.7155 150.062 98.7018 149.966 98.6973C149.875 98.6882 149.77 98.6836 149.652 98.6836C149.36 98.6836 149.103 98.7292 148.879 98.8203C148.656 98.9115 148.467 99.0391 148.312 99.2031C148.157 99.3672 148.034 99.5632 147.943 99.791C147.856 100.014 147.799 100.26 147.772 100.529L147.417 100.734C147.417 100.288 147.46 99.8685 147.546 99.4766C147.638 99.0846 147.777 98.7383 147.963 98.4375C148.15 98.1322 148.387 97.8952 148.674 97.7266C148.966 97.5534 149.312 97.4668 149.713 97.4668C149.805 97.4668 149.909 97.4782 150.028 97.501C150.146 97.5192 150.228 97.5397 150.274 97.5625ZM154.881 97.6035V98.5742H150.882V97.6035H154.881ZM152.236 95.8057H153.5V103.168C153.5 103.419 153.539 103.608 153.617 103.735C153.694 103.863 153.794 103.947 153.917 103.988C154.041 104.029 154.173 104.05 154.314 104.05C154.419 104.05 154.528 104.041 154.642 104.022C154.761 104 154.849 103.981 154.909 103.968L154.916 105C154.815 105.032 154.683 105.062 154.519 105.089C154.36 105.121 154.166 105.137 153.938 105.137C153.628 105.137 153.343 105.075 153.083 104.952C152.824 104.829 152.616 104.624 152.461 104.337C152.311 104.045 152.236 103.653 152.236 103.161V95.8057ZM159.434 105.137C158.919 105.137 158.452 105.05 158.033 104.877C157.618 104.699 157.26 104.451 156.959 104.132C156.663 103.813 156.435 103.435 156.276 102.997C156.116 102.56 156.037 102.081 156.037 101.562V101.274C156.037 100.673 156.125 100.137 156.303 99.668C156.481 99.194 156.722 98.793 157.028 98.4648C157.333 98.1367 157.68 97.8883 158.067 97.7197C158.454 97.5511 158.855 97.4668 159.27 97.4668C159.799 97.4668 160.254 97.5579 160.637 97.7402C161.025 97.9225 161.341 98.1777 161.587 98.5059C161.833 98.8294 162.016 99.2122 162.134 99.6543C162.253 100.092 162.312 100.57 162.312 101.09V101.657H156.789V100.625H161.047V100.529C161.029 100.201 160.961 99.8822 160.842 99.5723C160.728 99.2624 160.546 99.0072 160.295 98.8066C160.045 98.6061 159.703 98.5059 159.27 98.5059C158.983 98.5059 158.719 98.5674 158.477 98.6904C158.236 98.8089 158.028 98.9867 157.855 99.2236C157.682 99.4606 157.547 99.75 157.452 100.092C157.356 100.434 157.308 100.828 157.308 101.274V101.562C157.308 101.912 157.356 102.243 157.452 102.553C157.552 102.858 157.695 103.127 157.882 103.359C158.074 103.592 158.304 103.774 158.573 103.906C158.846 104.038 159.156 104.104 159.502 104.104C159.949 104.104 160.327 104.013 160.637 103.831C160.947 103.649 161.218 103.405 161.451 103.1L162.216 103.708C162.057 103.95 161.854 104.18 161.608 104.398C161.362 104.617 161.059 104.795 160.699 104.932C160.343 105.068 159.922 105.137 159.434 105.137ZM168.451 103.564V94.5H169.722V105H168.56L168.451 103.564ZM163.474 101.384V101.24C163.474 100.675 163.542 100.162 163.679 99.7021C163.82 99.2373 164.019 98.8385 164.274 98.5059C164.534 98.1732 164.841 97.918 165.197 97.7402C165.557 97.5579 165.958 97.4668 166.4 97.4668C166.865 97.4668 167.27 97.5488 167.617 97.7129C167.968 97.8724 168.264 98.1071 168.505 98.417C168.751 98.7223 168.945 99.0915 169.086 99.5244C169.228 99.9574 169.326 100.447 169.38 100.994V101.623C169.33 102.165 169.232 102.653 169.086 103.086C168.945 103.519 168.751 103.888 168.505 104.193C168.264 104.499 167.968 104.733 167.617 104.897C167.266 105.057 166.856 105.137 166.386 105.137C165.953 105.137 165.557 105.043 165.197 104.856C164.841 104.67 164.534 104.408 164.274 104.07C164.019 103.733 163.82 103.337 163.679 102.881C163.542 102.421 163.474 101.922 163.474 101.384ZM164.746 101.24V101.384C164.746 101.753 164.782 102.099 164.855 102.423C164.932 102.746 165.051 103.031 165.21 103.277C165.37 103.523 165.573 103.717 165.819 103.858C166.065 103.995 166.359 104.063 166.701 104.063C167.12 104.063 167.464 103.975 167.733 103.797C168.006 103.619 168.225 103.384 168.389 103.093C168.553 102.801 168.681 102.484 168.772 102.143V100.495C168.717 100.244 168.638 100.003 168.533 99.7705C168.432 99.5335 168.3 99.3239 168.136 99.1416C167.977 98.9548 167.778 98.8066 167.542 98.6973C167.309 98.5879 167.033 98.5332 166.714 98.5332C166.368 98.5332 166.069 98.6061 165.819 98.752C165.573 98.8932 165.37 99.0892 165.21 99.3398C165.051 99.5859 164.932 99.873 164.855 100.201C164.782 100.525 164.746 100.871 164.746 101.24ZM172.839 103.496V104.515C172.839 104.929 172.735 105.367 172.525 105.827C172.315 106.292 172.021 106.679 171.643 106.989L170.925 106.49C171.071 106.29 171.194 106.085 171.294 105.875C171.395 105.67 171.47 105.456 171.52 105.232C171.575 105.014 171.602 104.781 171.602 104.535V103.496H172.839ZM180.995 105.137C180.48 105.137 180.013 105.05 179.593 104.877C179.179 104.699 178.821 104.451 178.52 104.132C178.224 103.813 177.996 103.435 177.836 102.997C177.677 102.56 177.597 102.081 177.597 101.562V101.274C177.597 100.673 177.686 100.137 177.864 99.668C178.042 99.194 178.283 98.793 178.588 98.4648C178.894 98.1367 179.24 97.8883 179.627 97.7197C180.015 97.5511 180.416 97.4668 180.831 97.4668C181.359 97.4668 181.815 97.5579 182.198 97.7402C182.585 97.9225 182.902 98.1777 183.148 98.5059C183.394 98.8294 183.576 99.2122 183.695 99.6543C183.813 100.092 183.873 100.57 183.873 101.09V101.657H178.349V100.625H182.608V100.529C182.59 100.201 182.521 99.8822 182.403 99.5723C182.289 99.2624 182.107 99.0072 181.856 98.8066C181.605 98.6061 181.264 98.5059 180.831 98.5059C180.543 98.5059 180.279 98.5674 180.038 98.6904C179.796 98.8089 179.589 98.9867 179.416 99.2236C179.242 99.4606 179.108 99.75 179.012 100.092C178.917 100.434 178.869 100.828 178.869 101.274V101.562C178.869 101.912 178.917 102.243 179.012 102.553C179.112 102.858 179.256 103.127 179.443 103.359C179.634 103.592 179.864 103.774 180.133 103.906C180.407 104.038 180.717 104.104 181.063 104.104C181.51 104.104 181.888 104.013 182.198 103.831C182.508 103.649 182.779 103.405 183.011 103.1L183.777 103.708C183.617 103.95 183.415 104.18 183.168 104.398C182.922 104.617 182.619 104.795 182.259 104.932C181.904 105.068 181.482 105.137 180.995 105.137ZM186.614 99.1826V105H185.349V97.6035H186.545L186.614 99.1826ZM186.313 101.021L185.787 101.001C185.791 100.495 185.866 100.028 186.012 99.5996C186.158 99.1667 186.363 98.7907 186.627 98.4717C186.892 98.1527 187.206 97.9066 187.571 97.7334C187.94 97.5557 188.348 97.4668 188.794 97.4668C189.159 97.4668 189.487 97.5169 189.779 97.6172C190.07 97.7129 190.319 97.8678 190.524 98.082C190.734 98.2962 190.893 98.5742 191.002 98.916C191.112 99.2533 191.167 99.6657 191.167 100.153V105H189.895V100.14C189.895 99.7523 189.838 99.4424 189.724 99.21C189.61 98.973 189.444 98.8021 189.225 98.6973C189.006 98.5879 188.737 98.5332 188.418 98.5332C188.104 98.5332 187.817 98.5993 187.557 98.7314C187.302 98.8636 187.081 99.0459 186.894 99.2783C186.712 99.5107 186.568 99.7773 186.463 100.078C186.363 100.374 186.313 100.689 186.313 101.021ZM196.184 97.6035V98.5742H192.185V97.6035H196.184ZM193.539 95.8057H194.803V103.168C194.803 103.419 194.842 103.608 194.919 103.735C194.997 103.863 195.097 103.947 195.22 103.988C195.343 104.029 195.475 104.05 195.617 104.05C195.722 104.05 195.831 104.041 195.945 104.022C196.063 104 196.152 103.981 196.211 103.968L196.218 105C196.118 105.032 195.986 105.062 195.822 105.089C195.662 105.121 195.469 105.137 195.241 105.137C194.931 105.137 194.646 105.075 194.386 104.952C194.126 104.829 193.919 104.624 193.764 104.337C193.614 104.045 193.539 103.653 193.539 103.161V95.8057ZM200.737 105.137C200.222 105.137 199.755 105.05 199.335 104.877C198.921 104.699 198.563 104.451 198.262 104.132C197.966 103.813 197.738 103.435 197.579 102.997C197.419 102.56 197.339 102.081 197.339 101.562V101.274C197.339 100.673 197.428 100.137 197.606 99.668C197.784 99.194 198.025 98.793 198.331 98.4648C198.636 98.1367 198.982 97.8883 199.37 97.7197C199.757 97.5511 200.158 97.4668 200.573 97.4668C201.101 97.4668 201.557 97.5579 201.94 97.7402C202.327 97.9225 202.644 98.1777 202.89 98.5059C203.136 98.8294 203.319 99.2122 203.437 99.6543C203.556 100.092 203.615 100.57 203.615 101.09V101.657H198.091V100.625H202.35V100.529C202.332 100.201 202.264 99.8822 202.145 99.5723C202.031 99.2624 201.849 99.0072 201.598 98.8066C201.347 98.6061 201.006 98.5059 200.573 98.5059C200.286 98.5059 200.021 98.5674 199.78 98.6904C199.538 98.8089 199.331 98.9867 199.158 99.2236C198.985 99.4606 198.85 99.75 198.754 100.092C198.659 100.434 198.611 100.828 198.611 101.274V101.562C198.611 101.912 198.659 102.243 198.754 102.553C198.855 102.858 198.998 103.127 199.185 103.359C199.376 103.592 199.607 103.774 199.875 103.906C200.149 104.038 200.459 104.104 200.805 104.104C201.252 104.104 201.63 104.013 201.94 103.831C202.25 103.649 202.521 103.405 202.753 103.1L203.519 103.708C203.36 103.95 203.157 104.18 202.911 104.398C202.665 104.617 202.361 104.795 202.001 104.932C201.646 105.068 201.224 105.137 200.737 105.137ZM206.356 98.7656V105H205.091V97.6035H206.322L206.356 98.7656ZM208.667 97.5625L208.66 98.7383C208.555 98.7155 208.455 98.7018 208.359 98.6973C208.268 98.6882 208.163 98.6836 208.044 98.6836C207.753 98.6836 207.495 98.7292 207.272 98.8203C207.049 98.9115 206.86 99.0391 206.705 99.2031C206.55 99.3672 206.427 99.5632 206.335 99.791C206.249 100.014 206.192 100.26 206.165 100.529L205.809 100.734C205.809 100.288 205.852 99.8685 205.939 99.4766C206.03 99.0846 206.169 98.7383 206.356 98.4375C206.543 98.1322 206.78 97.8952 207.067 97.7266C207.359 97.5534 207.705 97.4668 208.106 97.4668C208.197 97.4668 208.302 97.4782 208.42 97.501C208.539 97.5192 208.621 97.5397 208.667 97.5625ZM216.405 97.6035V98.5742H212.406V97.6035H216.405ZM213.759 95.8057H215.024V103.168C215.024 103.419 215.063 103.608 215.14 103.735C215.218 103.863 215.318 103.947 215.441 103.988C215.564 104.029 215.696 104.05 215.837 104.05C215.942 104.05 216.052 104.041 216.166 104.022C216.284 104 216.373 103.981 216.432 103.968L216.439 105C216.339 105.032 216.207 105.062 216.042 105.089C215.883 105.121 215.689 105.137 215.461 105.137C215.152 105.137 214.867 105.075 214.607 104.952C214.347 104.829 214.14 104.624 213.985 104.337C213.834 104.045 213.759 103.653 213.759 103.161V95.8057ZM219.153 94.5V105H217.888V94.5H219.153ZM218.852 101.021L218.326 101.001C218.33 100.495 218.405 100.028 218.551 99.5996C218.697 99.1667 218.902 98.7907 219.167 98.4717C219.431 98.1527 219.745 97.9066 220.11 97.7334C220.479 97.5557 220.887 97.4668 221.333 97.4668C221.698 97.4668 222.026 97.5169 222.318 97.6172C222.61 97.7129 222.858 97.8678 223.063 98.082C223.273 98.2962 223.432 98.5742 223.542 98.916C223.651 99.2533 223.706 99.6657 223.706 100.153V105H222.434V100.14C222.434 99.7523 222.377 99.4424 222.263 99.21C222.149 98.973 221.983 98.8021 221.764 98.6973C221.545 98.5879 221.277 98.5332 220.958 98.5332C220.643 98.5332 220.356 98.5993 220.096 98.7314C219.841 98.8636 219.62 99.0459 219.433 99.2783C219.251 99.5107 219.107 99.7773 219.002 100.078C218.902 100.374 218.852 100.689 218.852 101.021ZM228.668 105.137C228.153 105.137 227.686 105.05 227.267 104.877C226.852 104.699 226.495 104.451 226.194 104.132C225.898 103.813 225.67 103.435 225.51 102.997C225.351 102.56 225.271 102.081 225.271 101.562V101.274C225.271 100.673 225.36 100.137 225.538 99.668C225.715 99.194 225.957 98.793 226.262 98.4648C226.568 98.1367 226.914 97.8883 227.301 97.7197C227.689 97.5511 228.09 97.4668 228.504 97.4668C229.033 97.4668 229.489 97.5579 229.872 97.7402C230.259 97.9225 230.576 98.1777 230.822 98.5059C231.068 98.8294 231.25 99.2122 231.369 99.6543C231.487 100.092 231.546 100.57 231.546 101.09V101.657H226.023V100.625H230.282V100.529C230.264 100.201 230.195 99.8822 230.077 99.5723C229.963 99.2624 229.78 99.0072 229.53 98.8066C229.279 98.6061 228.937 98.5059 228.504 98.5059C228.217 98.5059 227.953 98.5674 227.711 98.6904C227.47 98.8089 227.263 98.9867 227.089 99.2236C226.916 99.4606 226.782 99.75 226.686 100.092C226.59 100.434 226.542 100.828 226.542 101.274V101.562C226.542 101.912 226.59 102.243 226.686 102.553C226.786 102.858 226.93 103.127 227.117 103.359C227.308 103.592 227.538 103.774 227.807 103.906C228.081 104.038 228.39 104.104 228.737 104.104C229.183 104.104 229.562 104.013 229.872 103.831C230.181 103.649 230.453 103.405 230.685 103.1L231.451 103.708C231.291 103.95 231.088 104.18 230.842 104.398C230.596 104.617 230.293 104.795 229.933 104.932C229.578 105.068 229.156 105.137 228.668 105.137ZM48.7466 124.098C49.0474 124.098 49.3254 124.036 49.5806 123.913C49.8358 123.79 50.0454 123.621 50.2095 123.407C50.3735 123.188 50.467 122.94 50.4897 122.662H51.6929C51.6701 123.1 51.522 123.507 51.2485 123.886C50.9797 124.259 50.6265 124.562 50.189 124.795C49.7515 125.023 49.2707 125.137 48.7466 125.137C48.1906 125.137 47.7052 125.039 47.2905 124.843C46.8804 124.647 46.5386 124.378 46.2651 124.036C45.9963 123.694 45.7935 123.302 45.6567 122.86C45.5246 122.414 45.4585 121.942 45.4585 121.445V121.158C45.4585 120.661 45.5246 120.192 45.6567 119.75C45.7935 119.303 45.9963 118.909 46.2651 118.567C46.5386 118.226 46.8804 117.957 47.2905 117.761C47.7052 117.565 48.1906 117.467 48.7466 117.467C49.3254 117.467 49.8312 117.585 50.2642 117.822C50.6971 118.055 51.0366 118.374 51.2827 118.779C51.5334 119.18 51.6701 119.636 51.6929 120.146H50.4897C50.467 119.841 50.3804 119.565 50.23 119.319C50.0841 119.073 49.8836 118.877 49.6284 118.731C49.3778 118.581 49.0838 118.506 48.7466 118.506C48.3592 118.506 48.0334 118.583 47.769 118.738C47.5093 118.889 47.3019 119.094 47.147 119.354C46.9966 119.609 46.8872 119.894 46.8188 120.208C46.755 120.518 46.7231 120.835 46.7231 121.158V121.445C46.7231 121.769 46.755 122.088 46.8188 122.402C46.8826 122.717 46.9897 123.002 47.1401 123.257C47.2951 123.512 47.5024 123.717 47.7622 123.872C48.0265 124.022 48.3547 124.098 48.7466 124.098ZM57.6401 123.291V117.604H58.9116V125H57.7017L57.6401 123.291ZM57.8794 121.732L58.4058 121.719C58.4058 122.211 58.3534 122.667 58.2485 123.086C58.1483 123.501 57.9842 123.861 57.7563 124.166C57.5285 124.471 57.23 124.711 56.8608 124.884C56.4917 125.052 56.0428 125.137 55.5142 125.137C55.1541 125.137 54.8237 125.084 54.5229 124.979C54.2267 124.875 53.9715 124.713 53.7573 124.494C53.5431 124.275 53.3768 123.991 53.2583 123.64C53.1444 123.289 53.0874 122.867 53.0874 122.375V117.604H54.3521V122.389C54.3521 122.721 54.3885 122.997 54.4614 123.216C54.5389 123.43 54.6414 123.601 54.769 123.729C54.9012 123.852 55.047 123.938 55.2065 123.988C55.3706 124.038 55.5392 124.063 55.7124 124.063C56.2502 124.063 56.6763 123.961 56.9907 123.756C57.3052 123.546 57.5308 123.266 57.6675 122.915C57.8088 122.56 57.8794 122.165 57.8794 121.732ZM62.104 118.766V125H60.8394V117.604H62.0698L62.104 118.766ZM64.4146 117.562L64.4077 118.738C64.3029 118.715 64.2026 118.702 64.1069 118.697C64.0158 118.688 63.911 118.684 63.7925 118.684C63.5008 118.684 63.2433 118.729 63.02 118.82C62.7967 118.911 62.6076 119.039 62.4526 119.203C62.2977 119.367 62.1746 119.563 62.0835 119.791C61.9969 120.014 61.9399 120.26 61.9126 120.529L61.5571 120.734C61.5571 120.288 61.6004 119.868 61.687 119.477C61.7782 119.085 61.9172 118.738 62.104 118.438C62.2909 118.132 62.5278 117.895 62.8149 117.727C63.1066 117.553 63.453 117.467 63.854 117.467C63.9451 117.467 64.05 117.478 64.1685 117.501C64.2869 117.519 64.369 117.54 64.4146 117.562ZM66.8481 118.766V125H65.5835V117.604H66.814L66.8481 118.766ZM69.1587 117.562L69.1519 118.738C69.047 118.715 68.9468 118.702 68.8511 118.697C68.7599 118.688 68.6551 118.684 68.5366 118.684C68.245 118.684 67.9875 118.729 67.7642 118.82C67.5409 118.911 67.3517 119.039 67.1968 119.203C67.0418 119.367 66.9188 119.563 66.8276 119.791C66.741 120.014 66.6841 120.26 66.6567 120.529L66.3013 120.734C66.3013 120.288 66.3446 119.868 66.4312 119.477C66.5223 119.085 66.6613 118.738 66.8481 118.438C67.035 118.132 67.272 117.895 67.5591 117.727C67.8507 117.553 68.1971 117.467 68.5981 117.467C68.6893 117.467 68.7941 117.478 68.9126 117.501C69.0311 117.519 69.1131 117.54 69.1587 117.562ZM73.2603 125.137C72.7453 125.137 72.2782 125.05 71.8589 124.877C71.4442 124.699 71.0864 124.451 70.7856 124.132C70.4894 123.813 70.2616 123.435 70.1021 122.997C69.9425 122.56 69.8628 122.081 69.8628 121.562V121.274C69.8628 120.673 69.9517 120.137 70.1294 119.668C70.3071 119.194 70.5487 118.793 70.854 118.465C71.1593 118.137 71.5057 117.888 71.8931 117.72C72.2804 117.551 72.6815 117.467 73.0962 117.467C73.6248 117.467 74.0806 117.558 74.4634 117.74C74.8507 117.923 75.1675 118.178 75.4136 118.506C75.6597 118.829 75.842 119.212 75.9604 119.654C76.0789 120.092 76.1382 120.57 76.1382 121.09V121.657H70.6147V120.625H74.8735V120.529C74.8553 120.201 74.7869 119.882 74.6685 119.572C74.5545 119.262 74.3722 119.007 74.1216 118.807C73.8709 118.606 73.5291 118.506 73.0962 118.506C72.8091 118.506 72.5448 118.567 72.3032 118.69C72.0617 118.809 71.8543 118.987 71.6812 119.224C71.508 119.461 71.3735 119.75 71.2778 120.092C71.1821 120.434 71.1343 120.828 71.1343 121.274V121.562C71.1343 121.912 71.1821 122.243 71.2778 122.553C71.3781 122.858 71.5216 123.127 71.7085 123.359C71.8999 123.592 72.13 123.774 72.3989 123.906C72.6724 124.038 72.9823 124.104 73.3286 124.104C73.7752 124.104 74.1535 124.013 74.4634 123.831C74.7733 123.649 75.0444 123.405 75.2769 123.1L76.0425 123.708C75.883 123.95 75.6802 124.18 75.4341 124.398C75.188 124.617 74.8849 124.795 74.5249 124.932C74.1694 125.068 73.7479 125.137 73.2603 125.137ZM78.8794 119.183V125H77.6147V117.604H78.811L78.8794 119.183ZM78.5786 121.021L78.0522 121.001C78.0568 120.495 78.132 120.028 78.2778 119.6C78.4237 119.167 78.6287 118.791 78.8931 118.472C79.1574 118.153 79.4718 117.907 79.8364 117.733C80.2056 117.556 80.6134 117.467 81.0601 117.467C81.4246 117.467 81.7528 117.517 82.0444 117.617C82.3361 117.713 82.5845 117.868 82.7896 118.082C82.9992 118.296 83.1587 118.574 83.2681 118.916C83.3774 119.253 83.4321 119.666 83.4321 120.153V125H82.1606V120.14C82.1606 119.752 82.1037 119.442 81.9897 119.21C81.8758 118.973 81.7095 118.802 81.4907 118.697C81.272 118.588 81.0031 118.533 80.6841 118.533C80.3696 118.533 80.0825 118.599 79.8228 118.731C79.5675 118.864 79.3465 119.046 79.1597 119.278C78.9774 119.511 78.8338 119.777 78.729 120.078C78.6287 120.374 78.5786 120.689 78.5786 121.021ZM88.4497 117.604V118.574H84.4507V117.604H88.4497ZM85.8042 115.806H87.0688V123.168C87.0688 123.419 87.1076 123.608 87.1851 123.735C87.2625 123.863 87.3628 123.947 87.4858 123.988C87.6089 124.029 87.741 124.05 87.8823 124.05C87.9871 124.05 88.0965 124.041 88.2104 124.022C88.3289 124 88.4178 123.981 88.4771 123.968L88.4839 125C88.3836 125.032 88.2515 125.062 88.0874 125.089C87.9279 125.121 87.7342 125.137 87.5063 125.137C87.1965 125.137 86.9116 125.075 86.6519 124.952C86.3921 124.829 86.1847 124.624 86.0298 124.337C85.8794 124.045 85.8042 123.653 85.8042 123.161V115.806ZM93.3989 114.5H94.6704V123.564L94.561 125H93.3989V114.5ZM99.6675 121.24V121.384C99.6675 121.922 99.6037 122.421 99.4761 122.881C99.3485 123.337 99.1616 123.733 98.9155 124.07C98.6694 124.408 98.3687 124.67 98.0132 124.856C97.6577 125.043 97.2498 125.137 96.7896 125.137C96.3201 125.137 95.9077 125.057 95.5522 124.897C95.2013 124.733 94.9051 124.499 94.6636 124.193C94.422 123.888 94.2284 123.519 94.0825 123.086C93.9412 122.653 93.8433 122.165 93.7886 121.623V120.994C93.8433 120.447 93.9412 119.957 94.0825 119.524C94.2284 119.091 94.422 118.722 94.6636 118.417C94.9051 118.107 95.2013 117.872 95.5522 117.713C95.9032 117.549 96.311 117.467 96.7759 117.467C97.2407 117.467 97.6532 117.558 98.0132 117.74C98.3732 117.918 98.674 118.173 98.9155 118.506C99.1616 118.839 99.3485 119.237 99.4761 119.702C99.6037 120.162 99.6675 120.675 99.6675 121.24ZM98.396 121.384V121.24C98.396 120.871 98.3618 120.525 98.2935 120.201C98.2251 119.873 98.1157 119.586 97.9653 119.34C97.8149 119.089 97.6167 118.893 97.3706 118.752C97.1245 118.606 96.8215 118.533 96.4614 118.533C96.1424 118.533 95.8644 118.588 95.6274 118.697C95.395 118.807 95.1968 118.955 95.0327 119.142C94.8687 119.324 94.7342 119.534 94.6294 119.771C94.5291 120.003 94.4539 120.244 94.4038 120.495V122.143C94.4767 122.462 94.5952 122.769 94.7593 123.065C94.9279 123.357 95.1512 123.596 95.4292 123.783C95.7118 123.97 96.0604 124.063 96.4751 124.063C96.8169 124.063 97.1086 123.995 97.3501 123.858C97.5962 123.717 97.7944 123.523 97.9448 123.277C98.0998 123.031 98.2137 122.746 98.2866 122.423C98.3595 122.099 98.396 121.753 98.396 121.384ZM105.628 123.735V119.928C105.628 119.636 105.569 119.383 105.451 119.169C105.337 118.95 105.164 118.782 104.931 118.663C104.699 118.545 104.412 118.485 104.07 118.485C103.751 118.485 103.471 118.54 103.229 118.649C102.992 118.759 102.805 118.902 102.668 119.08C102.536 119.258 102.47 119.449 102.47 119.654H101.206C101.206 119.39 101.274 119.128 101.411 118.868C101.547 118.608 101.743 118.374 101.999 118.164C102.258 117.95 102.568 117.781 102.928 117.658C103.293 117.531 103.698 117.467 104.145 117.467C104.683 117.467 105.157 117.558 105.567 117.74C105.982 117.923 106.305 118.198 106.538 118.567C106.775 118.932 106.893 119.39 106.893 119.941V123.387C106.893 123.633 106.914 123.895 106.955 124.173C107 124.451 107.066 124.69 107.153 124.891V125H105.833C105.77 124.854 105.72 124.66 105.683 124.419C105.647 124.173 105.628 123.945 105.628 123.735ZM105.847 120.516L105.861 121.404H104.583C104.222 121.404 103.901 121.434 103.619 121.493C103.336 121.548 103.099 121.632 102.908 121.746C102.716 121.86 102.57 122.004 102.47 122.177C102.37 122.345 102.32 122.544 102.32 122.771C102.32 123.004 102.372 123.216 102.477 123.407C102.582 123.599 102.739 123.751 102.949 123.865C103.163 123.975 103.425 124.029 103.735 124.029C104.122 124.029 104.464 123.947 104.76 123.783C105.056 123.619 105.291 123.419 105.464 123.182C105.642 122.945 105.738 122.715 105.751 122.491L106.292 123.1C106.26 123.291 106.173 123.503 106.032 123.735C105.89 123.968 105.701 124.191 105.464 124.405C105.232 124.615 104.954 124.79 104.63 124.932C104.311 125.068 103.951 125.137 103.55 125.137C103.049 125.137 102.609 125.039 102.231 124.843C101.857 124.647 101.566 124.385 101.356 124.057C101.151 123.724 101.048 123.353 101.048 122.942C101.048 122.546 101.126 122.197 101.281 121.896C101.436 121.591 101.659 121.338 101.951 121.138C102.242 120.933 102.593 120.778 103.003 120.673C103.414 120.568 103.872 120.516 104.377 120.516H105.847ZM110.256 114.5V125H108.985V114.5H110.256ZM116.648 123.735V119.928C116.648 119.636 116.589 119.383 116.47 119.169C116.356 118.95 116.183 118.782 115.951 118.663C115.718 118.545 115.431 118.485 115.089 118.485C114.77 118.485 114.49 118.54 114.249 118.649C114.012 118.759 113.825 118.902 113.688 119.08C113.556 119.258 113.49 119.449 113.49 119.654H112.225C112.225 119.39 112.293 119.128 112.43 118.868C112.567 118.608 112.763 118.374 113.018 118.164C113.278 117.95 113.588 117.781 113.948 117.658C114.312 117.531 114.718 117.467 115.165 117.467C115.702 117.467 116.176 117.558 116.586 117.74C117.001 117.923 117.325 118.198 117.557 118.567C117.794 118.932 117.913 119.39 117.913 119.941V123.387C117.913 123.633 117.933 123.895 117.974 124.173C118.02 124.451 118.086 124.69 118.172 124.891V125H116.853C116.789 124.854 116.739 124.66 116.703 124.419C116.666 124.173 116.648 123.945 116.648 123.735ZM116.867 120.516L116.88 121.404H115.602C115.242 121.404 114.921 121.434 114.638 121.493C114.356 121.548 114.119 121.632 113.927 121.746C113.736 121.86 113.59 122.004 113.49 122.177C113.389 122.345 113.339 122.544 113.339 122.771C113.339 123.004 113.392 123.216 113.497 123.407C113.601 123.599 113.759 123.751 113.968 123.865C114.182 123.975 114.444 124.029 114.754 124.029C115.142 124.029 115.484 123.947 115.78 123.783C116.076 123.619 116.311 123.419 116.484 123.182C116.662 122.945 116.757 122.715 116.771 122.491L117.311 123.1C117.279 123.291 117.193 123.503 117.051 123.735C116.91 123.968 116.721 124.191 116.484 124.405C116.251 124.615 115.973 124.79 115.65 124.932C115.331 125.068 114.971 125.137 114.57 125.137C114.069 125.137 113.629 125.039 113.25 124.843C112.877 124.647 112.585 124.385 112.375 124.057C112.17 123.724 112.068 123.353 112.068 122.942C112.068 122.546 112.145 122.197 112.3 121.896C112.455 121.591 112.679 121.338 112.97 121.138C113.262 120.933 113.613 120.778 114.023 120.673C114.433 120.568 114.891 120.516 115.397 120.516H116.867ZM121.167 119.183V125H119.902V117.604H121.098L121.167 119.183ZM120.866 121.021L120.339 121.001C120.344 120.495 120.419 120.028 120.565 119.6C120.711 119.167 120.916 118.791 121.18 118.472C121.444 118.153 121.759 117.907 122.124 117.733C122.493 117.556 122.901 117.467 123.347 117.467C123.712 117.467 124.04 117.517 124.332 117.617C124.623 117.713 124.872 117.868 125.077 118.082C125.286 118.296 125.446 118.574 125.555 118.916C125.665 119.253 125.719 119.666 125.719 120.153V125H124.448V120.14C124.448 119.752 124.391 119.442 124.277 119.21C124.163 118.973 123.997 118.802 123.778 118.697C123.559 118.588 123.29 118.533 122.971 118.533C122.657 118.533 122.37 118.599 122.11 118.731C121.855 118.864 121.634 119.046 121.447 119.278C121.264 119.511 121.121 119.777 121.016 120.078C120.916 120.374 120.866 120.689 120.866 121.021ZM130.6 124.098C130.901 124.098 131.179 124.036 131.434 123.913C131.689 123.79 131.899 123.621 132.063 123.407C132.227 123.188 132.32 122.94 132.343 122.662H133.546C133.524 123.1 133.375 123.507 133.102 123.886C132.833 124.259 132.48 124.562 132.042 124.795C131.605 125.023 131.124 125.137 130.6 125.137C130.044 125.137 129.559 125.039 129.144 124.843C128.734 124.647 128.392 124.378 128.119 124.036C127.85 123.694 127.647 123.302 127.51 122.86C127.378 122.414 127.312 121.942 127.312 121.445V121.158C127.312 120.661 127.378 120.192 127.51 119.75C127.647 119.303 127.85 118.909 128.119 118.567C128.392 118.226 128.734 117.957 129.144 117.761C129.559 117.565 130.044 117.467 130.6 117.467C131.179 117.467 131.685 117.585 132.118 117.822C132.551 118.055 132.89 118.374 133.136 118.779C133.387 119.18 133.524 119.636 133.546 120.146H132.343C132.32 119.841 132.234 119.565 132.083 119.319C131.938 119.073 131.737 118.877 131.482 118.731C131.231 118.581 130.937 118.506 130.6 118.506C130.213 118.506 129.887 118.583 129.623 118.738C129.363 118.889 129.155 119.094 129 119.354C128.85 119.609 128.741 119.894 128.672 120.208C128.609 120.518 128.577 120.835 128.577 121.158V121.445C128.577 121.769 128.609 122.088 128.672 122.402C128.736 122.717 128.843 123.002 128.994 123.257C129.149 123.512 129.356 123.717 129.616 123.872C129.88 124.022 130.208 124.098 130.6 124.098ZM138.038 125.137C137.523 125.137 137.056 125.05 136.636 124.877C136.222 124.699 135.864 124.451 135.563 124.132C135.267 123.813 135.039 123.435 134.879 122.997C134.72 122.56 134.64 122.081 134.64 121.562V121.274C134.64 120.673 134.729 120.137 134.907 119.668C135.084 119.194 135.326 118.793 135.631 118.465C135.937 118.137 136.283 117.888 136.67 117.72C137.058 117.551 137.459 117.467 137.874 117.467C138.402 117.467 138.858 117.558 139.241 117.74C139.628 117.923 139.945 118.178 140.191 118.506C140.437 118.829 140.619 119.212 140.738 119.654C140.856 120.092 140.916 120.57 140.916 121.09V121.657H135.392V120.625H139.651V120.529C139.633 120.201 139.564 119.882 139.446 119.572C139.332 119.262 139.15 119.007 138.899 118.807C138.648 118.606 138.306 118.506 137.874 118.506C137.586 118.506 137.322 118.567 137.081 118.69C136.839 118.809 136.632 118.987 136.458 119.224C136.285 119.461 136.151 119.75 136.055 120.092C135.959 120.434 135.912 120.828 135.912 121.274V121.562C135.912 121.912 135.959 122.243 136.055 122.553C136.155 122.858 136.299 123.127 136.486 123.359C136.677 123.592 136.907 123.774 137.176 123.906C137.45 124.038 137.76 124.104 138.106 124.104C138.553 124.104 138.931 124.013 139.241 123.831C139.551 123.649 139.822 123.405 140.054 123.1L140.82 123.708C140.66 123.95 140.458 124.18 140.211 124.398C139.965 124.617 139.662 124.795 139.302 124.932C138.947 125.068 138.525 125.137 138.038 125.137ZM145.53 121.384V121.227C145.53 120.693 145.607 120.199 145.762 119.743C145.917 119.283 146.14 118.884 146.432 118.547C146.724 118.205 147.077 117.941 147.492 117.754C147.906 117.562 148.371 117.467 148.886 117.467C149.406 117.467 149.873 117.562 150.288 117.754C150.707 117.941 151.062 118.205 151.354 118.547C151.65 118.884 151.876 119.283 152.031 119.743C152.186 120.199 152.263 120.693 152.263 121.227V121.384C152.263 121.917 152.186 122.411 152.031 122.867C151.876 123.323 151.65 123.722 151.354 124.063C151.062 124.401 150.709 124.665 150.294 124.856C149.884 125.043 149.419 125.137 148.9 125.137C148.38 125.137 147.913 125.043 147.499 124.856C147.084 124.665 146.728 124.401 146.432 124.063C146.14 123.722 145.917 123.323 145.762 122.867C145.607 122.411 145.53 121.917 145.53 121.384ZM146.794 121.227V121.384C146.794 121.753 146.838 122.102 146.924 122.43C147.011 122.753 147.141 123.04 147.314 123.291C147.492 123.542 147.713 123.74 147.977 123.886C148.241 124.027 148.549 124.098 148.9 124.098C149.246 124.098 149.549 124.027 149.809 123.886C150.073 123.74 150.292 123.542 150.465 123.291C150.639 123.04 150.768 122.753 150.855 122.43C150.946 122.102 150.992 121.753 150.992 121.384V121.227C150.992 120.862 150.946 120.518 150.855 120.194C150.768 119.866 150.636 119.577 150.458 119.326C150.285 119.071 150.067 118.87 149.802 118.725C149.542 118.579 149.237 118.506 148.886 118.506C148.54 118.506 148.235 118.579 147.97 118.725C147.71 118.87 147.492 119.071 147.314 119.326C147.141 119.577 147.011 119.866 146.924 120.194C146.838 120.518 146.794 120.862 146.794 121.227ZM155.736 125H154.471V116.824C154.471 116.291 154.567 115.842 154.758 115.478C154.954 115.108 155.235 114.83 155.599 114.644C155.964 114.452 156.397 114.356 156.898 114.356C157.044 114.356 157.19 114.366 157.335 114.384C157.486 114.402 157.632 114.429 157.773 114.466L157.705 115.498C157.609 115.475 157.5 115.459 157.376 115.45C157.258 115.441 157.139 115.437 157.021 115.437C156.752 115.437 156.52 115.491 156.324 115.601C156.132 115.705 155.986 115.86 155.886 116.065C155.786 116.271 155.736 116.523 155.736 116.824V125ZM157.308 117.604V118.574H153.302V117.604H157.308ZM164.267 124.234L166.325 117.604H167.678L164.711 126.142C164.643 126.324 164.552 126.52 164.438 126.729C164.329 126.944 164.187 127.146 164.014 127.338C163.841 127.529 163.631 127.684 163.385 127.803C163.144 127.926 162.854 127.987 162.517 127.987C162.417 127.987 162.289 127.974 162.134 127.946C161.979 127.919 161.87 127.896 161.806 127.878L161.799 126.853C161.836 126.857 161.893 126.862 161.97 126.866C162.052 126.875 162.109 126.88 162.141 126.88C162.428 126.88 162.672 126.841 162.873 126.764C163.073 126.691 163.242 126.565 163.378 126.388C163.52 126.215 163.64 125.975 163.741 125.67L164.267 124.234ZM162.756 117.604L164.677 123.346L165.005 124.679L164.096 125.144L161.375 117.604H162.756ZM168.375 121.384V121.227C168.375 120.693 168.453 120.199 168.608 119.743C168.763 119.283 168.986 118.884 169.278 118.547C169.569 118.205 169.923 117.941 170.337 117.754C170.752 117.562 171.217 117.467 171.732 117.467C172.251 117.467 172.719 117.562 173.133 117.754C173.553 117.941 173.908 118.205 174.2 118.547C174.496 118.884 174.722 119.283 174.876 119.743C175.031 120.199 175.109 120.693 175.109 121.227V121.384C175.109 121.917 175.031 122.411 174.876 122.867C174.722 123.323 174.496 123.722 174.2 124.063C173.908 124.401 173.555 124.665 173.14 124.856C172.73 125.043 172.265 125.137 171.746 125.137C171.226 125.137 170.759 125.043 170.344 124.856C169.93 124.665 169.574 124.401 169.278 124.063C168.986 123.722 168.763 123.323 168.608 122.867C168.453 122.411 168.375 121.917 168.375 121.384ZM169.64 121.227V121.384C169.64 121.753 169.683 122.102 169.77 122.43C169.857 122.753 169.986 123.04 170.16 123.291C170.337 123.542 170.558 123.74 170.823 123.886C171.087 124.027 171.395 124.098 171.746 124.098C172.092 124.098 172.395 124.027 172.655 123.886C172.919 123.74 173.138 123.542 173.311 123.291C173.484 123.04 173.614 122.753 173.701 122.43C173.792 122.102 173.837 121.753 173.837 121.384V121.227C173.837 120.862 173.792 120.518 173.701 120.194C173.614 119.866 173.482 119.577 173.304 119.326C173.131 119.071 172.912 118.87 172.648 118.725C172.388 118.579 172.083 118.506 171.732 118.506C171.386 118.506 171.08 118.579 170.816 118.725C170.556 118.87 170.337 119.071 170.16 119.326C169.986 119.577 169.857 119.866 169.77 120.194C169.683 120.518 169.64 120.862 169.64 121.227ZM181.22 123.291V117.604H182.492V125H181.282L181.22 123.291ZM181.459 121.732L181.986 121.719C181.986 122.211 181.933 122.667 181.829 123.086C181.728 123.501 181.564 123.861 181.336 124.166C181.109 124.471 180.81 124.711 180.441 124.884C180.072 125.052 179.623 125.137 179.094 125.137C178.734 125.137 178.404 125.084 178.103 124.979C177.807 124.875 177.552 124.713 177.337 124.494C177.123 124.275 176.957 123.991 176.838 123.64C176.724 123.289 176.667 122.867 176.667 122.375V117.604H177.932V122.389C177.932 122.721 177.969 122.997 178.042 123.216C178.119 123.43 178.222 123.601 178.349 123.729C178.481 123.852 178.627 123.938 178.787 123.988C178.951 124.038 179.119 124.063 179.292 124.063C179.83 124.063 180.256 123.961 180.571 123.756C180.885 123.546 181.111 123.266 181.248 122.915C181.389 122.56 181.459 122.165 181.459 121.732ZM185.684 118.766V125H184.419V117.604H185.65L185.684 118.766ZM187.995 117.562L187.988 118.738C187.883 118.715 187.783 118.702 187.687 118.697C187.596 118.688 187.491 118.684 187.373 118.684C187.081 118.684 186.823 118.729 186.6 118.82C186.377 118.911 186.188 119.039 186.033 119.203C185.878 119.367 185.755 119.563 185.664 119.791C185.577 120.014 185.52 120.26 185.493 120.529L185.137 120.734C185.137 120.288 185.181 119.868 185.267 119.477C185.358 119.085 185.497 118.738 185.684 118.438C185.871 118.132 186.108 117.895 186.395 117.727C186.687 117.553 187.033 117.467 187.434 117.467C187.525 117.467 187.63 117.478 187.749 117.501C187.867 117.519 187.949 117.54 187.995 117.562ZM196.998 123.735V119.928C196.998 119.636 196.938 119.383 196.82 119.169C196.706 118.95 196.533 118.782 196.3 118.663C196.068 118.545 195.781 118.485 195.439 118.485C195.12 118.485 194.84 118.54 194.598 118.649C194.361 118.759 194.174 118.902 194.038 119.08C193.905 119.258 193.839 119.449 193.839 119.654H192.575C192.575 119.39 192.643 119.128 192.78 118.868C192.917 118.608 193.112 118.374 193.368 118.164C193.627 117.95 193.937 117.781 194.297 117.658C194.662 117.531 195.068 117.467 195.514 117.467C196.052 117.467 196.526 117.558 196.936 117.74C197.351 117.923 197.674 118.198 197.907 118.567C198.144 118.932 198.262 119.39 198.262 119.941V123.387C198.262 123.633 198.283 123.895 198.324 124.173C198.369 124.451 198.435 124.69 198.522 124.891V125H197.203C197.139 124.854 197.089 124.66 197.052 124.419C197.016 124.173 196.998 123.945 196.998 123.735ZM197.216 120.516L197.23 121.404H195.952C195.592 121.404 195.27 121.434 194.988 121.493C194.705 121.548 194.468 121.632 194.277 121.746C194.085 121.86 193.94 122.004 193.839 122.177C193.739 122.345 193.689 122.544 193.689 122.771C193.689 123.004 193.741 123.216 193.846 123.407C193.951 123.599 194.108 123.751 194.318 123.865C194.532 123.975 194.794 124.029 195.104 124.029C195.491 124.029 195.833 123.947 196.129 123.783C196.426 123.619 196.66 123.419 196.833 123.182C197.011 122.945 197.107 122.715 197.121 122.491L197.661 123.1C197.629 123.291 197.542 123.503 197.401 123.735C197.26 123.968 197.07 124.191 196.833 124.405C196.601 124.615 196.323 124.79 196 124.932C195.681 125.068 195.32 125.137 194.919 125.137C194.418 125.137 193.978 125.039 193.6 124.843C193.226 124.647 192.935 124.385 192.725 124.057C192.52 123.724 192.417 123.353 192.417 122.942C192.417 122.546 192.495 122.197 192.65 121.896C192.805 121.591 193.028 121.338 193.32 121.138C193.611 120.933 193.962 120.778 194.373 120.673C194.783 120.568 195.241 120.516 195.747 120.516H197.216ZM203.211 124.098C203.512 124.098 203.79 124.036 204.045 123.913C204.301 123.79 204.51 123.621 204.674 123.407C204.838 123.188 204.932 122.94 204.955 122.662H206.158C206.135 123.1 205.987 123.507 205.713 123.886C205.444 124.259 205.091 124.562 204.654 124.795C204.216 125.023 203.736 125.137 203.211 125.137C202.655 125.137 202.17 125.039 201.755 124.843C201.345 124.647 201.003 124.378 200.73 124.036C200.461 123.694 200.258 123.302 200.122 122.86C199.989 122.414 199.923 121.942 199.923 121.445V121.158C199.923 120.661 199.989 120.192 200.122 119.75C200.258 119.303 200.461 118.909 200.73 118.567C201.003 118.226 201.345 117.957 201.755 117.761C202.17 117.565 202.655 117.467 203.211 117.467C203.79 117.467 204.296 117.585 204.729 117.822C205.162 118.055 205.501 118.374 205.748 118.779C205.998 119.18 206.135 119.636 206.158 120.146H204.955C204.932 119.841 204.845 119.565 204.695 119.319C204.549 119.073 204.348 118.877 204.093 118.731C203.843 118.581 203.549 118.506 203.211 118.506C202.824 118.506 202.498 118.583 202.234 118.738C201.974 118.889 201.767 119.094 201.612 119.354C201.461 119.609 201.352 119.894 201.284 120.208C201.22 120.518 201.188 120.835 201.188 121.158V121.445C201.188 121.769 201.22 122.088 201.284 122.402C201.347 122.717 201.455 123.002 201.605 123.257C201.76 123.512 201.967 123.717 202.227 123.872C202.491 124.022 202.819 124.098 203.211 124.098ZM210.54 124.098C210.84 124.098 211.118 124.036 211.374 123.913C211.629 123.79 211.838 123.621 212.002 123.407C212.167 123.188 212.26 122.94 212.283 122.662H213.486C213.463 123.1 213.315 123.507 213.042 123.886C212.773 124.259 212.419 124.562 211.982 124.795C211.544 125.023 211.064 125.137 210.54 125.137C209.984 125.137 209.498 125.039 209.083 124.843C208.673 124.647 208.332 124.378 208.058 124.036C207.789 123.694 207.586 123.302 207.45 122.86C207.318 122.414 207.251 121.942 207.251 121.445V121.158C207.251 120.661 207.318 120.192 207.45 119.75C207.586 119.303 207.789 118.909 208.058 118.567C208.332 118.226 208.673 117.957 209.083 117.761C209.498 117.565 209.984 117.467 210.54 117.467C211.118 117.467 211.624 117.585 212.057 117.822C212.49 118.055 212.83 118.374 213.076 118.779C213.326 119.18 213.463 119.636 213.486 120.146H212.283C212.26 119.841 212.173 119.565 212.023 119.319C211.877 119.073 211.677 118.877 211.421 118.731C211.171 118.581 210.877 118.506 210.54 118.506C210.152 118.506 209.826 118.583 209.562 118.738C209.302 118.889 209.095 119.094 208.94 119.354C208.79 119.609 208.68 119.894 208.612 120.208C208.548 120.518 208.516 120.835 208.516 121.158V121.445C208.516 121.769 208.548 122.088 208.612 122.402C208.676 122.717 208.783 123.002 208.933 123.257C209.088 123.512 209.295 123.717 209.555 123.872C209.819 124.022 210.148 124.098 210.54 124.098ZM214.573 121.384V121.227C214.573 120.693 214.65 120.199 214.805 119.743C214.96 119.283 215.183 118.884 215.475 118.547C215.767 118.205 216.12 117.941 216.535 117.754C216.949 117.562 217.414 117.467 217.929 117.467C218.449 117.467 218.916 117.562 219.331 117.754C219.75 117.941 220.105 118.205 220.397 118.547C220.693 118.884 220.919 119.283 221.074 119.743C221.229 120.199 221.306 120.693 221.306 121.227V121.384C221.306 121.917 221.229 122.411 221.074 122.867C220.919 123.323 220.693 123.722 220.397 124.063C220.105 124.401 219.752 124.665 219.337 124.856C218.927 125.043 218.462 125.137 217.943 125.137C217.423 125.137 216.956 125.043 216.542 124.856C216.127 124.665 215.771 124.401 215.475 124.063C215.183 123.722 214.96 123.323 214.805 122.867C214.65 122.411 214.573 121.917 214.573 121.384ZM215.837 121.227V121.384C215.837 121.753 215.881 122.102 215.967 122.43C216.054 122.753 216.184 123.04 216.357 123.291C216.535 123.542 216.756 123.74 217.02 123.886C217.284 124.027 217.592 124.098 217.943 124.098C218.289 124.098 218.592 124.027 218.852 123.886C219.116 123.74 219.335 123.542 219.508 123.291C219.681 123.04 219.811 122.753 219.898 122.43C219.989 122.102 220.035 121.753 220.035 121.384V121.227C220.035 120.862 219.989 120.518 219.898 120.194C219.811 119.866 219.679 119.577 219.501 119.326C219.328 119.071 219.11 118.87 218.845 118.725C218.585 118.579 218.28 118.506 217.929 118.506C217.583 118.506 217.278 118.579 217.013 118.725C216.753 118.87 216.535 119.071 216.357 119.326C216.184 119.577 216.054 119.866 215.967 120.194C215.881 120.518 215.837 120.862 215.837 121.227ZM227.417 123.291V117.604H228.689V125H227.479L227.417 123.291ZM227.657 121.732L228.183 121.719C228.183 122.211 228.131 122.667 228.026 123.086C227.926 123.501 227.762 123.861 227.534 124.166C227.306 124.471 227.007 124.711 226.638 124.884C226.269 125.052 225.82 125.137 225.292 125.137C224.931 125.137 224.601 125.084 224.3 124.979C224.004 124.875 223.749 124.713 223.535 124.494C223.32 124.275 223.154 123.991 223.036 123.64C222.922 123.289 222.865 122.867 222.865 122.375V117.604H224.129V122.389C224.129 122.721 224.166 122.997 224.239 123.216C224.316 123.43 224.419 123.601 224.546 123.729C224.679 123.852 224.824 123.938 224.984 123.988C225.148 124.038 225.317 124.063 225.49 124.063C226.028 124.063 226.454 123.961 226.768 123.756C227.083 123.546 227.308 123.266 227.445 122.915C227.586 122.56 227.657 122.165 227.657 121.732ZM231.881 119.183V125H230.617V117.604H231.813L231.881 119.183ZM231.581 121.021L231.054 121.001C231.059 120.495 231.134 120.028 231.28 119.6C231.426 119.167 231.631 118.791 231.895 118.472C232.159 118.153 232.474 117.907 232.838 117.733C233.208 117.556 233.615 117.467 234.062 117.467C234.427 117.467 234.755 117.517 235.046 117.617C235.338 117.713 235.586 117.868 235.792 118.082C236.001 118.296 236.161 118.574 236.27 118.916C236.379 119.253 236.434 119.666 236.434 120.153V125H235.163V120.14C235.163 119.752 235.106 119.442 234.992 119.21C234.878 118.973 234.711 118.802 234.493 118.697C234.274 118.588 234.005 118.533 233.686 118.533C233.372 118.533 233.084 118.599 232.825 118.731C232.569 118.864 232.348 119.046 232.162 119.278C231.979 119.511 231.836 119.777 231.731 120.078C231.631 120.374 231.581 120.689 231.581 121.021ZM241.452 117.604V118.574H237.453V117.604H241.452ZM238.806 115.806H240.071V123.168C240.071 123.419 240.11 123.608 240.187 123.735C240.264 123.863 240.365 123.947 240.488 123.988C240.611 124.029 240.743 124.05 240.884 124.05C240.989 124.05 241.098 124.041 241.212 124.022C241.331 124 241.42 123.981 241.479 123.968L241.486 125C241.386 125.032 241.253 125.062 241.089 125.089C240.93 125.121 240.736 125.137 240.508 125.137C240.198 125.137 239.914 125.075 239.654 124.952C239.394 124.829 239.187 124.624 239.032 124.337C238.881 124.045 238.806 123.653 238.806 123.161V115.806ZM244.439 115.047L244.35 122.19H243.208L243.113 115.047H244.439ZM243.072 124.364C243.072 124.159 243.133 123.986 243.256 123.845C243.384 123.703 243.571 123.633 243.817 123.633C244.058 123.633 244.243 123.703 244.371 123.845C244.503 123.986 244.569 124.159 244.569 124.364C244.569 124.56 244.503 124.729 244.371 124.87C244.243 125.011 244.058 125.082 243.817 125.082C243.571 125.082 243.384 125.011 243.256 124.87C243.133 124.729 243.072 124.56 243.072 124.364Z"
        fill="white" />
    <path
        d="M46.2056 151.469L48.4204 155.752L50.6411 151.469H51.9243L48.9829 156.812V160H47.8521V156.812L44.9106 151.469H46.2056ZM52.1821 156.9V156.766C52.1821 156.309 52.2485 155.885 52.3813 155.494C52.5142 155.1 52.7056 154.758 52.9556 154.469C53.2056 154.176 53.5083 153.949 53.8638 153.789C54.2192 153.625 54.6177 153.543 55.0591 153.543C55.5044 153.543 55.9048 153.625 56.2603 153.789C56.6196 153.949 56.9243 154.176 57.1743 154.469C57.4282 154.758 57.6216 155.1 57.7544 155.494C57.8872 155.885 57.9536 156.309 57.9536 156.766V156.9C57.9536 157.357 57.8872 157.781 57.7544 158.172C57.6216 158.562 57.4282 158.904 57.1743 159.197C56.9243 159.486 56.6216 159.713 56.2661 159.877C55.9146 160.037 55.5161 160.117 55.0708 160.117C54.6255 160.117 54.2251 160.037 53.8696 159.877C53.5142 159.713 53.2095 159.486 52.9556 159.197C52.7056 158.904 52.5142 158.562 52.3813 158.172C52.2485 157.781 52.1821 157.357 52.1821 156.9ZM53.2661 156.766V156.9C53.2661 157.217 53.3032 157.516 53.3774 157.797C53.4517 158.074 53.563 158.32 53.7114 158.535C53.8638 158.75 54.0532 158.92 54.2798 159.045C54.5063 159.166 54.77 159.227 55.0708 159.227C55.3677 159.227 55.6274 159.166 55.8501 159.045C56.0767 158.92 56.2642 158.75 56.4126 158.535C56.561 158.32 56.6724 158.074 56.7466 157.797C56.8247 157.516 56.8638 157.217 56.8638 156.9V156.766C56.8638 156.453 56.8247 156.158 56.7466 155.881C56.6724 155.6 56.5591 155.352 56.4067 155.137C56.2583 154.918 56.0708 154.746 55.8442 154.621C55.6216 154.496 55.3599 154.434 55.0591 154.434C54.7622 154.434 54.5005 154.496 54.2739 154.621C54.0513 154.746 53.8638 154.918 53.7114 155.137C53.563 155.352 53.4517 155.6 53.3774 155.881C53.3032 156.158 53.2661 156.453 53.2661 156.766ZM63.1919 158.535V153.66H64.2817V160H63.2446L63.1919 158.535ZM63.397 157.199L63.8481 157.188C63.8481 157.609 63.8032 158 63.7134 158.359C63.6274 158.715 63.4868 159.023 63.2915 159.285C63.0962 159.547 62.8403 159.752 62.5239 159.9C62.2075 160.045 61.8228 160.117 61.3696 160.117C61.061 160.117 60.7778 160.072 60.52 159.982C60.2661 159.893 60.0474 159.754 59.8638 159.566C59.6802 159.379 59.5376 159.135 59.436 158.834C59.3384 158.533 59.2896 158.172 59.2896 157.75V153.66H60.3735V157.762C60.3735 158.047 60.4048 158.283 60.4673 158.471C60.5337 158.654 60.6216 158.801 60.731 158.91C60.8442 159.016 60.9692 159.09 61.106 159.133C61.2466 159.176 61.3911 159.197 61.5396 159.197C62.0005 159.197 62.3657 159.109 62.6353 158.934C62.9048 158.754 63.0981 158.514 63.2153 158.213C63.3364 157.908 63.397 157.57 63.397 157.199ZM71.4478 159.227C71.7056 159.227 71.9438 159.174 72.1626 159.068C72.3813 158.963 72.561 158.818 72.7017 158.635C72.8423 158.447 72.9224 158.234 72.9419 157.996H73.9731C73.9536 158.371 73.8267 158.721 73.5923 159.045C73.3618 159.365 73.0591 159.625 72.6841 159.824C72.3091 160.02 71.897 160.117 71.4478 160.117C70.9712 160.117 70.5552 160.033 70.1997 159.865C69.8481 159.697 69.5552 159.467 69.3208 159.174C69.0903 158.881 68.9165 158.545 68.7993 158.166C68.686 157.783 68.6294 157.379 68.6294 156.953V156.707C68.6294 156.281 68.686 155.879 68.7993 155.5C68.9165 155.117 69.0903 154.779 69.3208 154.486C69.5552 154.193 69.8481 153.963 70.1997 153.795C70.5552 153.627 70.9712 153.543 71.4478 153.543C71.9438 153.543 72.3774 153.645 72.7485 153.848C73.1196 154.047 73.4106 154.32 73.6216 154.668C73.8364 155.012 73.9536 155.402 73.9731 155.84H72.9419C72.9224 155.578 72.8481 155.342 72.7192 155.131C72.5942 154.92 72.4224 154.752 72.2036 154.627C71.9888 154.498 71.7368 154.434 71.4478 154.434C71.1157 154.434 70.8364 154.5 70.6099 154.633C70.3872 154.762 70.2095 154.938 70.0767 155.16C69.9478 155.379 69.854 155.623 69.7954 155.893C69.7407 156.158 69.7134 156.43 69.7134 156.707V156.953C69.7134 157.23 69.7407 157.504 69.7954 157.773C69.8501 158.043 69.9419 158.287 70.0708 158.506C70.2036 158.725 70.3813 158.9 70.604 159.033C70.8306 159.162 71.1118 159.227 71.4478 159.227ZM78.9302 158.916V155.652C78.9302 155.402 78.8794 155.186 78.7778 155.002C78.6802 154.814 78.5317 154.67 78.3325 154.568C78.1333 154.467 77.8872 154.416 77.5942 154.416C77.3208 154.416 77.0806 154.463 76.8735 154.557C76.6704 154.65 76.5103 154.773 76.3931 154.926C76.2798 155.078 76.2231 155.242 76.2231 155.418H75.1392C75.1392 155.191 75.1978 154.967 75.3149 154.744C75.4321 154.521 75.6001 154.32 75.8188 154.141C76.0415 153.957 76.3071 153.812 76.6157 153.707C76.9282 153.598 77.2759 153.543 77.6587 153.543C78.1196 153.543 78.5259 153.621 78.8774 153.777C79.2329 153.934 79.5103 154.17 79.7095 154.486C79.9126 154.799 80.0142 155.191 80.0142 155.664V158.617C80.0142 158.828 80.0317 159.053 80.0669 159.291C80.106 159.529 80.1626 159.734 80.2368 159.906V160H79.106C79.0513 159.875 79.0083 159.709 78.9771 159.502C78.9458 159.291 78.9302 159.096 78.9302 158.916ZM79.1177 156.156L79.1294 156.918H78.0337C77.7251 156.918 77.4497 156.943 77.2075 156.994C76.9653 157.041 76.7622 157.113 76.5981 157.211C76.4341 157.309 76.3091 157.432 76.2231 157.58C76.1372 157.725 76.0942 157.895 76.0942 158.09C76.0942 158.289 76.1392 158.471 76.229 158.635C76.3188 158.799 76.4536 158.93 76.6333 159.027C76.8169 159.121 77.0415 159.168 77.3071 159.168C77.6392 159.168 77.9321 159.098 78.186 158.957C78.4399 158.816 78.6411 158.645 78.7896 158.441C78.9419 158.238 79.0239 158.041 79.0356 157.85L79.4985 158.371C79.4712 158.535 79.397 158.717 79.2759 158.916C79.1548 159.115 78.9927 159.307 78.7896 159.49C78.5903 159.67 78.3521 159.82 78.0747 159.941C77.8013 160.059 77.4927 160.117 77.1489 160.117C76.7192 160.117 76.3423 160.033 76.0181 159.865C75.6978 159.697 75.4478 159.473 75.2681 159.191C75.0923 158.906 75.0044 158.588 75.0044 158.236C75.0044 157.896 75.0708 157.598 75.2036 157.34C75.3364 157.078 75.5278 156.861 75.7778 156.689C76.0278 156.514 76.3286 156.381 76.6802 156.291C77.0317 156.201 77.4243 156.156 77.8579 156.156H79.1177ZM82.8032 155.014V160H81.7192V153.66H82.7446L82.8032 155.014ZM82.5454 156.59L82.0942 156.572C82.0981 156.139 82.1626 155.738 82.2876 155.371C82.4126 155 82.5884 154.678 82.8149 154.404C83.0415 154.131 83.311 153.92 83.6235 153.771C83.9399 153.619 84.2896 153.543 84.6724 153.543C84.9849 153.543 85.2661 153.586 85.5161 153.672C85.7661 153.754 85.979 153.887 86.1548 154.07C86.3345 154.254 86.4712 154.492 86.5649 154.785C86.6587 155.074 86.7056 155.428 86.7056 155.846V160H85.6157V155.834C85.6157 155.502 85.5669 155.236 85.4692 155.037C85.3716 154.834 85.229 154.688 85.0415 154.598C84.854 154.504 84.6235 154.457 84.3501 154.457C84.0806 154.457 83.8345 154.514 83.6118 154.627C83.3931 154.74 83.2036 154.896 83.0435 155.096C82.8872 155.295 82.7642 155.523 82.6743 155.781C82.5884 156.035 82.5454 156.305 82.5454 156.59ZM88.4048 151V151.645L88.2817 153.801H87.5259L87.5317 151.744V151H88.4048ZM92.4946 153.66V154.492H89.0669V153.66H92.4946ZM90.2271 152.119H91.311V158.43C91.311 158.645 91.3442 158.807 91.4106 158.916C91.4771 159.025 91.563 159.098 91.6685 159.133C91.7739 159.168 91.8872 159.186 92.0083 159.186C92.0981 159.186 92.1919 159.178 92.2896 159.162C92.3911 159.143 92.4673 159.127 92.5181 159.115L92.5239 160C92.438 160.027 92.3247 160.053 92.1841 160.076C92.0474 160.104 91.8813 160.117 91.686 160.117C91.4204 160.117 91.1763 160.064 90.9536 159.959C90.731 159.854 90.5532 159.678 90.4204 159.432C90.2915 159.182 90.2271 158.846 90.2271 158.424V152.119ZM100.434 158.318C100.434 158.162 100.399 158.018 100.329 157.885C100.262 157.748 100.124 157.625 99.9126 157.516C99.7056 157.402 99.3931 157.305 98.9751 157.223C98.6235 157.148 98.3052 157.061 98.02 156.959C97.7388 156.857 97.4985 156.734 97.2993 156.59C97.104 156.445 96.9536 156.275 96.8481 156.08C96.7427 155.885 96.6899 155.656 96.6899 155.395C96.6899 155.145 96.7446 154.908 96.854 154.686C96.9673 154.463 97.1255 154.266 97.3286 154.094C97.5356 153.922 97.7837 153.787 98.0728 153.689C98.3618 153.592 98.6841 153.543 99.0396 153.543C99.5474 153.543 99.981 153.633 100.34 153.812C100.7 153.992 100.975 154.232 101.167 154.533C101.358 154.83 101.454 155.16 101.454 155.523H100.37C100.37 155.348 100.317 155.178 100.211 155.014C100.11 154.846 99.9595 154.707 99.7603 154.598C99.5649 154.488 99.3247 154.434 99.0396 154.434C98.7388 154.434 98.4946 154.48 98.3071 154.574C98.1235 154.664 97.9888 154.779 97.9028 154.92C97.8208 155.061 97.7798 155.209 97.7798 155.365C97.7798 155.482 97.7993 155.588 97.8384 155.682C97.8813 155.771 97.9556 155.855 98.061 155.934C98.1665 156.008 98.3149 156.078 98.5063 156.145C98.6978 156.211 98.9419 156.277 99.2388 156.344C99.7583 156.461 100.186 156.602 100.522 156.766C100.858 156.93 101.108 157.131 101.272 157.369C101.436 157.607 101.518 157.896 101.518 158.236C101.518 158.514 101.459 158.768 101.342 158.998C101.229 159.229 101.063 159.428 100.844 159.596C100.629 159.76 100.372 159.889 100.071 159.982C99.7739 160.072 99.4399 160.117 99.0688 160.117C98.5103 160.117 98.0376 160.018 97.6509 159.818C97.2642 159.619 96.9712 159.361 96.772 159.045C96.5728 158.729 96.4731 158.395 96.4731 158.043H97.563C97.5786 158.34 97.6646 158.576 97.8208 158.752C97.9771 158.924 98.1685 159.047 98.395 159.121C98.6216 159.191 98.8462 159.227 99.0688 159.227C99.3657 159.227 99.6138 159.188 99.813 159.109C100.016 159.031 100.17 158.924 100.276 158.787C100.381 158.65 100.434 158.494 100.434 158.318ZM104.026 154.879V162.438H102.936V153.66H103.932L104.026 154.879ZM108.297 156.777V156.9C108.297 157.361 108.243 157.789 108.133 158.184C108.024 158.574 107.864 158.914 107.653 159.203C107.446 159.492 107.19 159.717 106.885 159.877C106.581 160.037 106.231 160.117 105.836 160.117C105.434 160.117 105.079 160.051 104.77 159.918C104.461 159.785 104.2 159.592 103.985 159.338C103.77 159.084 103.598 158.779 103.469 158.424C103.344 158.068 103.258 157.668 103.211 157.223V156.566C103.258 156.098 103.346 155.678 103.475 155.307C103.604 154.936 103.774 154.619 103.985 154.357C104.2 154.092 104.459 153.891 104.764 153.754C105.069 153.613 105.42 153.543 105.819 153.543C106.217 153.543 106.571 153.621 106.879 153.777C107.188 153.93 107.448 154.148 107.659 154.434C107.87 154.719 108.028 155.061 108.133 155.459C108.243 155.854 108.297 156.293 108.297 156.777ZM107.208 156.9V156.777C107.208 156.461 107.174 156.164 107.108 155.887C107.042 155.605 106.938 155.359 106.797 155.148C106.661 154.934 106.485 154.766 106.27 154.645C106.055 154.52 105.799 154.457 105.502 154.457C105.229 154.457 104.991 154.504 104.788 154.598C104.588 154.691 104.418 154.818 104.278 154.979C104.137 155.135 104.022 155.314 103.932 155.518C103.846 155.717 103.782 155.924 103.739 156.139V157.656C103.817 157.93 103.926 158.188 104.067 158.43C104.208 158.668 104.395 158.861 104.629 159.01C104.864 159.154 105.159 159.227 105.514 159.227C105.807 159.227 106.059 159.166 106.27 159.045C106.485 158.92 106.661 158.75 106.797 158.535C106.938 158.32 107.042 158.074 107.108 157.797C107.174 157.516 107.208 157.217 107.208 156.9ZM112.311 160.117C111.87 160.117 111.469 160.043 111.11 159.895C110.754 159.742 110.448 159.529 110.19 159.256C109.936 158.982 109.741 158.658 109.604 158.283C109.467 157.908 109.399 157.498 109.399 157.053V156.807C109.399 156.291 109.475 155.832 109.627 155.43C109.78 155.023 109.987 154.68 110.249 154.398C110.51 154.117 110.807 153.904 111.139 153.76C111.471 153.615 111.815 153.543 112.17 153.543C112.624 153.543 113.014 153.621 113.342 153.777C113.674 153.934 113.946 154.152 114.157 154.434C114.368 154.711 114.524 155.039 114.625 155.418C114.727 155.793 114.778 156.203 114.778 156.648V157.135H110.043V156.25H113.694V156.168C113.678 155.887 113.62 155.613 113.518 155.348C113.42 155.082 113.264 154.863 113.049 154.691C112.834 154.52 112.542 154.434 112.17 154.434C111.924 154.434 111.698 154.486 111.491 154.592C111.284 154.693 111.106 154.846 110.958 155.049C110.809 155.252 110.694 155.5 110.612 155.793C110.53 156.086 110.489 156.424 110.489 156.807V157.053C110.489 157.354 110.53 157.637 110.612 157.902C110.698 158.164 110.821 158.395 110.981 158.594C111.145 158.793 111.342 158.949 111.573 159.062C111.807 159.176 112.073 159.232 112.37 159.232C112.752 159.232 113.077 159.154 113.342 158.998C113.608 158.842 113.84 158.633 114.04 158.371L114.696 158.893C114.559 159.1 114.385 159.297 114.174 159.484C113.963 159.672 113.704 159.824 113.395 159.941C113.09 160.059 112.729 160.117 112.311 160.117ZM117.127 155.014V160H116.043V153.66H117.069L117.127 155.014ZM116.87 156.59L116.418 156.572C116.422 156.139 116.487 155.738 116.612 155.371C116.737 155 116.913 154.678 117.139 154.404C117.366 154.131 117.635 153.92 117.948 153.771C118.264 153.619 118.614 153.543 118.997 153.543C119.309 153.543 119.59 153.586 119.84 153.672C120.09 153.754 120.303 153.887 120.479 154.07C120.659 154.254 120.795 154.492 120.889 154.785C120.983 155.074 121.03 155.428 121.03 155.846V160H119.94V155.834C119.94 155.502 119.891 155.236 119.793 155.037C119.696 154.834 119.553 154.688 119.366 154.598C119.178 154.504 118.948 154.457 118.674 154.457C118.405 154.457 118.159 154.514 117.936 154.627C117.717 154.74 117.528 154.896 117.368 155.096C117.211 155.295 117.088 155.523 116.999 155.781C116.913 156.035 116.87 156.305 116.87 156.59ZM126.672 158.77V151H127.762V160H126.766L126.672 158.77ZM122.407 156.9V156.777C122.407 156.293 122.465 155.854 122.583 155.459C122.704 155.061 122.874 154.719 123.092 154.434C123.315 154.148 123.579 153.93 123.883 153.777C124.192 153.621 124.536 153.543 124.915 153.543C125.313 153.543 125.661 153.613 125.958 153.754C126.258 153.891 126.512 154.092 126.719 154.357C126.93 154.619 127.096 154.936 127.217 155.307C127.338 155.678 127.422 156.098 127.469 156.566V157.105C127.426 157.57 127.342 157.988 127.217 158.359C127.096 158.73 126.93 159.047 126.719 159.309C126.512 159.57 126.258 159.771 125.958 159.912C125.657 160.049 125.305 160.117 124.903 160.117C124.532 160.117 124.192 160.037 123.883 159.877C123.579 159.717 123.315 159.492 123.092 159.203C122.874 158.914 122.704 158.574 122.583 158.184C122.465 157.789 122.407 157.361 122.407 156.9ZM123.497 156.777V156.9C123.497 157.217 123.528 157.514 123.59 157.791C123.657 158.068 123.758 158.312 123.895 158.523C124.032 158.734 124.206 158.9 124.417 159.021C124.627 159.139 124.879 159.197 125.172 159.197C125.532 159.197 125.827 159.121 126.057 158.969C126.292 158.816 126.479 158.615 126.62 158.365C126.76 158.115 126.87 157.844 126.948 157.551V156.139C126.901 155.924 126.833 155.717 126.743 155.518C126.657 155.314 126.543 155.135 126.403 154.979C126.266 154.818 126.096 154.691 125.893 154.598C125.694 154.504 125.458 154.457 125.184 154.457C124.887 154.457 124.631 154.52 124.417 154.645C124.206 154.766 124.032 154.934 123.895 155.148C123.758 155.359 123.657 155.605 123.59 155.887C123.528 156.164 123.497 156.461 123.497 156.777ZM133.504 154.92V160H132.415V153.66H133.446L133.504 154.92ZM133.282 156.59L132.778 156.572C132.782 156.139 132.838 155.738 132.948 155.371C133.057 155 133.219 154.678 133.434 154.404C133.649 154.131 133.917 153.92 134.237 153.771C134.557 153.619 134.928 153.543 135.35 153.543C135.647 153.543 135.92 153.586 136.17 153.672C136.42 153.754 136.637 153.885 136.821 154.064C137.004 154.244 137.147 154.475 137.249 154.756C137.35 155.037 137.401 155.377 137.401 155.775V160H136.317V155.828C136.317 155.496 136.26 155.23 136.147 155.031C136.038 154.832 135.881 154.688 135.678 154.598C135.475 154.504 135.237 154.457 134.963 154.457C134.643 154.457 134.375 154.514 134.161 154.627C133.946 154.74 133.774 154.896 133.645 155.096C133.516 155.295 133.422 155.523 133.364 155.781C133.309 156.035 133.282 156.305 133.282 156.59ZM137.389 155.992L136.663 156.215C136.667 155.867 136.723 155.533 136.833 155.213C136.946 154.893 137.108 154.607 137.319 154.357C137.534 154.107 137.797 153.91 138.11 153.766C138.422 153.617 138.78 153.543 139.182 153.543C139.522 153.543 139.823 153.588 140.084 153.678C140.35 153.768 140.573 153.906 140.752 154.094C140.936 154.277 141.075 154.514 141.168 154.803C141.262 155.092 141.309 155.436 141.309 155.834V160H140.219V155.822C140.219 155.467 140.163 155.191 140.049 154.996C139.94 154.797 139.784 154.658 139.581 154.58C139.381 154.498 139.143 154.457 138.866 154.457C138.627 154.457 138.417 154.498 138.233 154.58C138.049 154.662 137.895 154.775 137.77 154.92C137.645 155.061 137.549 155.223 137.483 155.406C137.42 155.59 137.389 155.785 137.389 155.992ZM142.663 156.9V156.766C142.663 156.309 142.729 155.885 142.862 155.494C142.995 155.1 143.186 154.758 143.436 154.469C143.686 154.176 143.989 153.949 144.344 153.789C144.7 153.625 145.098 153.543 145.54 153.543C145.985 153.543 146.385 153.625 146.741 153.789C147.1 153.949 147.405 154.176 147.655 154.469C147.909 154.758 148.102 155.1 148.235 155.494C148.368 155.885 148.434 156.309 148.434 156.766V156.9C148.434 157.357 148.368 157.781 148.235 158.172C148.102 158.562 147.909 158.904 147.655 159.197C147.405 159.486 147.102 159.713 146.747 159.877C146.395 160.037 145.997 160.117 145.551 160.117C145.106 160.117 144.706 160.037 144.35 159.877C143.995 159.713 143.69 159.486 143.436 159.197C143.186 158.904 142.995 158.562 142.862 158.172C142.729 157.781 142.663 157.357 142.663 156.9ZM143.747 156.766V156.9C143.747 157.217 143.784 157.516 143.858 157.797C143.932 158.074 144.043 158.32 144.192 158.535C144.344 158.75 144.534 158.92 144.76 159.045C144.987 159.166 145.25 159.227 145.551 159.227C145.848 159.227 146.108 159.166 146.331 159.045C146.557 158.92 146.745 158.75 146.893 158.535C147.042 158.32 147.153 158.074 147.227 157.797C147.305 157.516 147.344 157.217 147.344 156.9V156.766C147.344 156.453 147.305 156.158 147.227 155.881C147.153 155.6 147.04 155.352 146.887 155.137C146.739 154.918 146.551 154.746 146.325 154.621C146.102 154.496 145.84 154.434 145.54 154.434C145.243 154.434 144.981 154.496 144.754 154.621C144.532 154.746 144.344 154.918 144.192 155.137C144.043 155.352 143.932 155.6 143.858 155.881C143.784 156.158 143.747 156.453 143.747 156.766ZM150.877 155.014V160H149.793V153.66H150.819L150.877 155.014ZM150.62 156.59L150.168 156.572C150.172 156.139 150.237 155.738 150.362 155.371C150.487 155 150.663 154.678 150.889 154.404C151.116 154.131 151.385 153.92 151.698 153.771C152.014 153.619 152.364 153.543 152.747 153.543C153.059 153.543 153.34 153.586 153.59 153.672C153.84 153.754 154.053 153.887 154.229 154.07C154.409 154.254 154.545 154.492 154.639 154.785C154.733 155.074 154.78 155.428 154.78 155.846V160H153.69V155.834C153.69 155.502 153.641 155.236 153.543 155.037C153.446 154.834 153.303 154.688 153.116 154.598C152.928 154.504 152.698 154.457 152.424 154.457C152.155 154.457 151.909 154.514 151.686 154.627C151.467 154.74 151.278 154.896 151.118 155.096C150.961 155.295 150.838 155.523 150.749 155.781C150.663 156.035 150.62 156.305 150.62 156.59ZM159.057 160.117C158.616 160.117 158.215 160.043 157.856 159.895C157.5 159.742 157.194 159.529 156.936 159.256C156.682 158.982 156.487 158.658 156.35 158.283C156.213 157.908 156.145 157.498 156.145 157.053V156.807C156.145 156.291 156.221 155.832 156.374 155.43C156.526 155.023 156.733 154.68 156.995 154.398C157.256 154.117 157.553 153.904 157.885 153.76C158.217 153.615 158.561 153.543 158.917 153.543C159.37 153.543 159.76 153.621 160.088 153.777C160.42 153.934 160.692 154.152 160.903 154.434C161.114 154.711 161.27 155.039 161.372 155.418C161.473 155.793 161.524 156.203 161.524 156.648V157.135H156.79V156.25H160.44V156.168C160.424 155.887 160.366 155.613 160.264 155.348C160.167 155.082 160.01 154.863 159.795 154.691C159.581 154.52 159.288 154.434 158.917 154.434C158.67 154.434 158.444 154.486 158.237 154.592C158.03 154.693 157.852 154.846 157.704 155.049C157.555 155.252 157.44 155.5 157.358 155.793C157.276 156.086 157.235 156.424 157.235 156.807V157.053C157.235 157.354 157.276 157.637 157.358 157.902C157.444 158.164 157.567 158.395 157.727 158.594C157.891 158.793 158.088 158.949 158.319 159.062C158.553 159.176 158.819 159.232 159.116 159.232C159.499 159.232 159.823 159.154 160.088 158.998C160.354 158.842 160.586 158.633 160.786 158.371L161.442 158.893C161.305 159.1 161.131 159.297 160.92 159.484C160.709 159.672 160.45 159.824 160.141 159.941C159.836 160.059 159.475 160.117 159.057 160.117ZM164.489 159.344L166.252 153.66H167.413L164.87 160.979C164.811 161.135 164.733 161.303 164.635 161.482C164.542 161.666 164.42 161.84 164.272 162.004C164.124 162.168 163.944 162.301 163.733 162.402C163.526 162.508 163.278 162.561 162.989 162.561C162.903 162.561 162.793 162.549 162.661 162.525C162.528 162.502 162.434 162.482 162.379 162.467L162.374 161.588C162.405 161.592 162.454 161.596 162.52 161.6C162.59 161.607 162.639 161.611 162.667 161.611C162.913 161.611 163.122 161.578 163.293 161.512C163.465 161.449 163.61 161.342 163.727 161.189C163.848 161.041 163.952 160.836 164.038 160.574L164.489 159.344ZM163.194 153.66L164.84 158.582L165.122 159.725L164.342 160.123L162.01 153.66H163.194ZM175.247 158.535V153.66H176.336V160H175.299L175.247 158.535ZM175.452 157.199L175.903 157.188C175.903 157.609 175.858 158 175.768 158.359C175.682 158.715 175.542 159.023 175.346 159.285C175.151 159.547 174.895 159.752 174.579 159.9C174.262 160.045 173.877 160.117 173.424 160.117C173.116 160.117 172.833 160.072 172.575 159.982C172.321 159.893 172.102 159.754 171.918 159.566C171.735 159.379 171.592 159.135 171.491 158.834C171.393 158.533 171.344 158.172 171.344 157.75V153.66H172.428V157.762C172.428 158.047 172.459 158.283 172.522 158.471C172.588 158.654 172.676 158.801 172.786 158.91C172.899 159.016 173.024 159.09 173.161 159.133C173.301 159.176 173.446 159.197 173.594 159.197C174.055 159.197 174.42 159.109 174.69 158.934C174.959 158.754 175.153 158.514 175.27 158.213C175.391 157.908 175.452 157.57 175.452 157.199ZM179.073 155.014V160H177.989V153.66H179.014L179.073 155.014ZM178.815 156.59L178.364 156.572C178.368 156.139 178.432 155.738 178.557 155.371C178.682 155 178.858 154.678 179.084 154.404C179.311 154.131 179.581 153.92 179.893 153.771C180.209 153.619 180.559 153.543 180.942 153.543C181.254 153.543 181.536 153.586 181.786 153.672C182.036 153.754 182.249 153.887 182.424 154.07C182.604 154.254 182.741 154.492 182.834 154.785C182.928 155.074 182.975 155.428 182.975 155.846V160H181.885V155.834C181.885 155.502 181.836 155.236 181.739 155.037C181.641 154.834 181.499 154.688 181.311 154.598C181.124 154.504 180.893 154.457 180.62 154.457C180.35 154.457 180.104 154.514 179.881 154.627C179.663 154.74 179.473 154.896 179.313 155.096C179.157 155.295 179.034 155.523 178.944 155.781C178.858 156.035 178.815 156.305 178.815 156.59ZM187.276 153.66V154.492H183.848V153.66H187.276ZM185.008 152.119H186.092V158.43C186.092 158.645 186.125 158.807 186.192 158.916C186.258 159.025 186.344 159.098 186.45 159.133C186.555 159.168 186.668 159.186 186.79 159.186C186.879 159.186 186.973 159.178 187.071 159.162C187.172 159.143 187.249 159.127 187.299 159.115L187.305 160C187.219 160.027 187.106 160.053 186.965 160.076C186.829 160.104 186.663 160.117 186.467 160.117C186.202 160.117 185.958 160.064 185.735 159.959C185.512 159.854 185.334 159.678 185.202 159.432C185.073 159.182 185.008 158.846 185.008 158.424V152.119ZM189.725 153.66V160H188.635V153.66H189.725ZM188.553 151.979C188.553 151.803 188.606 151.654 188.711 151.533C188.821 151.412 188.981 151.352 189.192 151.352C189.399 151.352 189.557 151.412 189.667 151.533C189.78 151.654 189.836 151.803 189.836 151.979C189.836 152.146 189.78 152.291 189.667 152.412C189.557 152.529 189.399 152.588 189.192 152.588C188.981 152.588 188.821 152.529 188.711 152.412C188.606 152.291 188.553 152.146 188.553 151.979ZM192.643 151V160H191.553V151H192.643ZM199.141 159.344L200.905 153.66H202.065L199.522 160.979C199.463 161.135 199.385 161.303 199.288 161.482C199.194 161.666 199.073 161.84 198.924 162.004C198.776 162.168 198.596 162.301 198.385 162.402C198.178 162.508 197.93 162.561 197.641 162.561C197.555 162.561 197.446 162.549 197.313 162.525C197.18 162.502 197.086 162.482 197.032 162.467L197.026 161.588C197.057 161.592 197.106 161.596 197.172 161.6C197.243 161.607 197.292 161.611 197.319 161.611C197.565 161.611 197.774 161.578 197.946 161.512C198.118 161.449 198.262 161.342 198.379 161.189C198.5 161.041 198.604 160.836 198.69 160.574L199.141 159.344ZM197.846 153.66L199.493 158.582L199.774 159.725L198.995 160.123L196.663 153.66H197.846ZM202.663 156.9V156.766C202.663 156.309 202.729 155.885 202.862 155.494C202.995 155.1 203.186 154.758 203.436 154.469C203.686 154.176 203.989 153.949 204.344 153.789C204.7 153.625 205.098 153.543 205.54 153.543C205.985 153.543 206.385 153.625 206.741 153.789C207.1 153.949 207.405 154.176 207.655 154.469C207.909 154.758 208.102 155.1 208.235 155.494C208.368 155.885 208.434 156.309 208.434 156.766V156.9C208.434 157.357 208.368 157.781 208.235 158.172C208.102 158.562 207.909 158.904 207.655 159.197C207.405 159.486 207.102 159.713 206.747 159.877C206.395 160.037 205.997 160.117 205.551 160.117C205.106 160.117 204.706 160.037 204.35 159.877C203.995 159.713 203.69 159.486 203.436 159.197C203.186 158.904 202.995 158.562 202.862 158.172C202.729 157.781 202.663 157.357 202.663 156.9ZM203.747 156.766V156.9C203.747 157.217 203.784 157.516 203.858 157.797C203.932 158.074 204.043 158.32 204.192 158.535C204.344 158.75 204.534 158.92 204.76 159.045C204.987 159.166 205.25 159.227 205.551 159.227C205.848 159.227 206.108 159.166 206.331 159.045C206.557 158.92 206.745 158.75 206.893 158.535C207.042 158.32 207.153 158.074 207.227 157.797C207.305 157.516 207.344 157.217 207.344 156.9V156.766C207.344 156.453 207.305 156.158 207.227 155.881C207.153 155.6 207.04 155.352 206.887 155.137C206.739 154.918 206.551 154.746 206.325 154.621C206.102 154.496 205.84 154.434 205.54 154.434C205.243 154.434 204.981 154.496 204.754 154.621C204.532 154.746 204.344 154.918 204.192 155.137C204.043 155.352 203.932 155.6 203.858 155.881C203.784 156.158 203.747 156.453 203.747 156.766ZM213.672 158.535V153.66H214.762V160H213.725L213.672 158.535ZM213.877 157.199L214.329 157.188C214.329 157.609 214.284 158 214.194 158.359C214.108 158.715 213.967 159.023 213.772 159.285C213.577 159.547 213.321 159.752 213.004 159.9C212.688 160.045 212.303 160.117 211.85 160.117C211.542 160.117 211.258 160.072 211 159.982C210.747 159.893 210.528 159.754 210.344 159.566C210.161 159.379 210.018 159.135 209.917 158.834C209.819 158.533 209.77 158.172 209.77 157.75V153.66H210.854V157.762C210.854 158.047 210.885 158.283 210.948 158.471C211.014 158.654 211.102 158.801 211.211 158.91C211.325 159.016 211.45 159.09 211.586 159.133C211.727 159.176 211.872 159.197 212.02 159.197C212.481 159.197 212.846 159.109 213.116 158.934C213.385 158.754 213.579 158.514 213.696 158.213C213.817 157.908 213.877 157.57 213.877 157.199ZM220.475 151V160H219.391V151H220.475ZM220.217 156.59L219.766 156.572C219.77 156.139 219.834 155.738 219.959 155.371C220.084 155 220.26 154.678 220.487 154.404C220.713 154.131 220.983 153.92 221.295 153.771C221.612 153.619 221.961 153.543 222.344 153.543C222.657 153.543 222.938 153.586 223.188 153.672C223.438 153.754 223.651 153.887 223.827 154.07C224.006 154.254 224.143 154.492 224.237 154.785C224.331 155.074 224.377 155.428 224.377 155.846V160H223.288V155.834C223.288 155.502 223.239 155.236 223.141 155.037C223.043 154.834 222.901 154.688 222.713 154.598C222.526 154.504 222.295 154.457 222.022 154.457C221.752 154.457 221.506 154.514 221.284 154.627C221.065 154.74 220.875 154.896 220.715 155.096C220.559 155.295 220.436 155.523 220.346 155.781C220.26 156.035 220.217 156.305 220.217 156.59ZM229.739 158.916V155.652C229.739 155.402 229.688 155.186 229.586 155.002C229.489 154.814 229.34 154.67 229.141 154.568C228.942 154.467 228.696 154.416 228.403 154.416C228.129 154.416 227.889 154.463 227.682 154.557C227.479 154.65 227.319 154.773 227.202 154.926C227.088 155.078 227.032 155.242 227.032 155.418H225.948C225.948 155.191 226.006 154.967 226.124 154.744C226.241 154.521 226.409 154.32 226.627 154.141C226.85 153.957 227.116 153.812 227.424 153.707C227.737 153.598 228.084 153.543 228.467 153.543C228.928 153.543 229.334 153.621 229.686 153.777C230.042 153.934 230.319 154.17 230.518 154.486C230.721 154.799 230.823 155.191 230.823 155.664V158.617C230.823 158.828 230.84 159.053 230.875 159.291C230.915 159.529 230.971 159.734 231.045 159.906V160H229.915C229.86 159.875 229.817 159.709 229.786 159.502C229.754 159.291 229.739 159.096 229.739 158.916ZM229.926 156.156L229.938 156.918H228.842C228.534 156.918 228.258 156.943 228.016 156.994C227.774 157.041 227.571 157.113 227.407 157.211C227.243 157.309 227.118 157.432 227.032 157.58C226.946 157.725 226.903 157.895 226.903 158.09C226.903 158.289 226.948 158.471 227.038 158.635C227.127 158.799 227.262 158.93 227.442 159.027C227.625 159.121 227.85 159.168 228.116 159.168C228.448 159.168 228.741 159.098 228.995 158.957C229.249 158.816 229.45 158.645 229.598 158.441C229.75 158.238 229.833 158.041 229.844 157.85L230.307 158.371C230.28 158.535 230.206 158.717 230.084 158.916C229.963 159.115 229.801 159.307 229.598 159.49C229.399 159.67 229.161 159.82 228.883 159.941C228.61 160.059 228.301 160.117 227.958 160.117C227.528 160.117 227.151 160.033 226.827 159.865C226.506 159.697 226.256 159.473 226.077 159.191C225.901 158.906 225.813 158.588 225.813 158.236C225.813 157.896 225.879 157.598 226.012 157.34C226.145 157.078 226.336 156.861 226.586 156.689C226.836 156.514 227.137 156.381 227.489 156.291C227.84 156.201 228.233 156.156 228.667 156.156H229.926ZM234.362 159.021L236.096 153.66H237.204L234.924 160H234.198L234.362 159.021ZM232.915 153.66L234.702 159.051L234.825 160H234.098L231.801 153.66H232.915ZM240.795 160.117C240.354 160.117 239.954 160.043 239.594 159.895C239.239 159.742 238.932 159.529 238.674 159.256C238.42 158.982 238.225 158.658 238.088 158.283C237.952 157.908 237.883 157.498 237.883 157.053V156.807C237.883 156.291 237.959 155.832 238.112 155.43C238.264 155.023 238.471 154.68 238.733 154.398C238.995 154.117 239.292 153.904 239.624 153.76C239.956 153.615 240.299 153.543 240.655 153.543C241.108 153.543 241.499 153.621 241.827 153.777C242.159 153.934 242.43 154.152 242.641 154.434C242.852 154.711 243.008 155.039 243.11 155.418C243.211 155.793 243.262 156.203 243.262 156.648V157.135H238.528V156.25H242.178V156.168C242.163 155.887 242.104 155.613 242.002 155.348C241.905 155.082 241.749 154.863 241.534 154.691C241.319 154.52 241.026 154.434 240.655 154.434C240.409 154.434 240.182 154.486 239.975 154.592C239.768 154.693 239.59 154.846 239.442 155.049C239.293 155.252 239.178 155.5 239.096 155.793C239.014 156.086 238.973 156.424 238.973 156.807V157.053C238.973 157.354 239.014 157.637 239.096 157.902C239.182 158.164 239.305 158.395 239.465 158.594C239.629 158.793 239.827 158.949 240.057 159.062C240.292 159.176 240.557 159.232 240.854 159.232C241.237 159.232 241.561 159.154 241.827 158.998C242.092 158.842 242.325 158.633 242.524 158.371L243.18 158.893C243.043 159.1 242.87 159.297 242.659 159.484C242.448 159.672 242.188 159.824 241.879 159.941C241.575 160.059 241.213 160.117 240.795 160.117ZM248.682 153.66V160H247.592V153.66H248.682ZM247.51 151.979C247.51 151.803 247.563 151.654 247.668 151.533C247.778 151.412 247.938 151.352 248.149 151.352C248.356 151.352 248.514 151.412 248.624 151.533C248.737 151.654 248.793 151.803 248.793 151.979C248.793 152.146 248.737 152.291 248.624 152.412C248.514 152.529 248.356 152.588 248.149 152.588C247.938 152.588 247.778 152.529 247.668 152.412C247.563 152.291 247.51 152.146 247.51 151.979ZM253.077 153.66V154.492H249.649V153.66H253.077ZM250.809 152.119H251.893V158.43C251.893 158.645 251.926 158.807 251.993 158.916C252.059 159.025 252.145 159.098 252.25 159.133C252.356 159.168 252.469 159.186 252.59 159.186C252.68 159.186 252.774 159.178 252.872 159.162C252.973 159.143 253.049 159.127 253.1 159.115L253.106 160C253.02 160.027 252.907 160.053 252.766 160.076C252.629 160.104 252.463 160.117 252.268 160.117C252.002 160.117 251.758 160.064 251.536 159.959C251.313 159.854 251.135 159.678 251.002 159.432C250.874 159.182 250.809 158.846 250.809 158.424V152.119ZM257.278 159.426C257.278 159.242 257.334 159.088 257.448 158.963C257.565 158.834 257.733 158.77 257.952 158.77C258.17 158.77 258.336 158.834 258.45 158.963C258.567 159.088 258.625 159.242 258.625 159.426C258.625 159.605 258.567 159.758 258.45 159.883C258.336 160.008 258.17 160.07 257.952 160.07C257.733 160.07 257.565 160.008 257.448 159.883C257.334 159.758 257.278 159.605 257.278 159.426ZM257.284 154.252C257.284 154.068 257.34 153.914 257.454 153.789C257.571 153.66 257.739 153.596 257.958 153.596C258.176 153.596 258.342 153.66 258.456 153.789C258.573 153.914 258.631 154.068 258.631 154.252C258.631 154.432 258.573 154.584 258.456 154.709C258.342 154.834 258.176 154.896 257.958 154.896C257.739 154.896 257.571 154.834 257.454 154.709C257.34 154.584 257.284 154.432 257.284 154.252ZM262.727 156.531V156.59C262.727 157.445 262.631 158.219 262.44 158.91C262.249 159.602 262.004 160.205 261.708 160.721C261.411 161.24 261.098 161.67 260.77 162.01C260.442 162.354 260.139 162.602 259.862 162.754L259.633 162.098C259.864 161.922 260.096 161.676 260.331 161.359C260.565 161.047 260.782 160.66 260.981 160.199C261.18 159.742 261.34 159.215 261.461 158.617C261.583 158.016 261.643 157.344 261.643 156.602V156.52C261.643 155.777 261.579 155.107 261.45 154.51C261.321 153.908 261.153 153.379 260.946 152.922C260.743 152.465 260.524 152.08 260.29 151.768C260.059 151.451 259.84 151.207 259.633 151.035L259.862 150.373C260.139 150.525 260.442 150.773 260.77 151.117C261.098 151.457 261.411 151.887 261.708 152.406C262.004 152.926 262.249 153.531 262.44 154.223C262.631 154.91 262.727 155.68 262.727 156.531Z"
        fill="white" />
    <defs>
        <filter id="filter0_d_14_1509" x="-40" y="0" width="400" height="283" filterUnits="userSpaceOnUse"
            color-interpolation-filters="sRGB">
            <feFlood flood-opacity="0" result="BackgroundImageFix" />
            <feColorMatrix in="SourceAlpha" type="matrix" values="0 0 0 0 0 0 0 0 0 0 0 0 0 0 0 0 0 0 127 0"
                result="hardAlpha" />
            <feOffset dy="10" />
            <feGaussianBlur stdDeviation="30" />
            <feColorMatrix type="matrix" values="0 0 0 0 0.666667 0 0 0 0 0.698039 0 0 0 0 0.772549 0 0 0 0.2 0" />
            <feBlend mode="normal" in2="BackgroundImageFix" result="effect1_dropShadow_14_1509" />
            <feBlend mode="normal" in="SourceGraphic" in2="effect1_dropShadow_14_1509" result="shape" />
        </filter>
        <linearGradient id="paint0_linear_14_1509" x1="29.2409" y1="53.2171" x2="180.469" y2="190.442"
            gradientUnits="userSpaceOnUse">
            <stop stop-color="#1D346A" />
            <stop offset="1" stop-color="#031634" />
        </linearGradient>
    </defs>
</svg>