<svg xmlns="http://www.w3.org/2000/svg" viewBox="0 0 1024 1024">
  <path d="M981.725 0H42.275c-14.42 0-26.217 11.798-26.217 26.217s11.798 26.217 26.217 26.217H98.86v944.693c0 9.613 5.243 18.571 13.764 23.159s18.789 4.151 26.873-1.311l113.826-75.811 114.264 76.028c8.739 5.899 20.319 5.899 29.058 0l113.827-75.811 114.262 76.03c8.741 5.899 20.319 5.899 29.058 0L767.619 943.6l114.264 76.028c4.368 2.842 9.393 4.37 14.418 4.37 4.151 0 8.521-1.092 12.454-3.059 8.519-4.588 13.764-13.544 13.764-23.159l-.437-944.692h59.644c14.418 0 26.216-11.798 26.216-26.217S996.144-.002 981.726-.002zM870.301 948.189l-88.046-58.553c-8.739-5.899-20.319-5.899-29.058 0l-113.827 76.03-114.262-76.03c-8.739-5.899-20.319-5.899-29.058 0l-113.827 75.813-114.264-75.813c-8.739-5.899-20.317-5.899-29.056 0l-87.61 58.333V52.215h718.789l.218 895.973z"/>
  <path d="M271.894 418.604h274.624c14.42 0 26.218-11.798 26.218-26.216 0-14.42-11.798-26.218-26.218-26.218H271.894c-14.42 0-26.218 11.798-26.218 26.218 0 14.418 11.58 26.216 26.218 26.216zM271.894 509.711h205.804c14.42 0 26.218-11.798 26.218-26.216 0-14.42-11.798-26.218-26.218-26.218H271.894c-14.42 0-26.218 11.798-26.218 26.218 0 14.418 11.58 26.216 26.218 26.216zM683.725 418.604h68.601c14.42 0 26.218-11.798 26.218-26.216 0-14.42-11.798-26.218-26.218-26.218h-68.601c-14.42 0-26.218 11.798-26.218 26.218 0 14.418 11.579 26.216 26.218 26.216zM683.725 509.711h68.601c14.42 0 26.218-11.798 26.218-26.216 0-14.42-11.798-26.218-26.218-26.218h-68.601c-14.42 0-26.218 11.798-26.218 26.218 0 14.418 11.579 26.216 26.218 26.216zM271.894 208.21h274.624c14.42 0 26.218-11.796 26.218-26.216s-11.798-26.217-26.218-26.217H271.894c-14.42 0-26.218 11.798-26.218 26.217s11.58 26.216 26.218 26.216zM271.894 299.096h205.804c14.42 0 26.218-11.798 26.218-26.218s-11.798-26.216-26.218-26.216H271.894c-14.42 0-26.218 11.796-26.218 26.216s11.58 26.218 26.218 26.218zM683.725 208.21h68.601c14.42 0 26.218-11.796 26.218-26.216s-11.798-26.217-26.218-26.217h-68.601c-14.42 0-26.218 11.798-26.218 26.217s11.579 26.216 26.218 26.216zM683.725 299.096h68.601c14.42 0 26.218-11.798 26.218-26.218s-11.798-26.216-26.218-26.216h-68.601c-14.42 0-26.218 11.796-26.218 26.216s11.579 26.218 26.218 26.218zM271.894 631.612h274.624c14.42 0 26.218-11.798 26.218-26.216 0-14.42-11.798-26.218-26.218-26.218H271.894c-14.42 0-26.218 11.798-26.218 26.218 0 14.418 11.58 26.216 26.218 26.216zM271.894 722.498h205.804c14.42 0 26.218-11.798 26.218-26.218s-11.798-26.218-26.218-26.218H271.894c-14.42 0-26.218 11.798-26.218 26.218s11.58 26.218 26.218 26.218zM683.725 631.612h68.601c14.42 0 26.218-11.798 26.218-26.216 0-14.42-11.798-26.218-26.218-26.218h-68.601c-14.42 0-26.218 11.798-26.218 26.218 0 14.418 11.579 26.216 26.218 26.216zM683.725 722.498h68.601c14.42 0 26.218-11.798 26.218-26.218s-11.798-26.218-26.218-26.218h-68.601c-14.42 0-26.218 11.798-26.218 26.218s11.579 26.218 26.218 26.218z"/>
</svg>
