<svg xmlns="http://www.w3.org/2000/svg" viewBox="0 0 1024 1024">
  <path d="M1004.151 205.797h-67.485v-23.024a19.85 19.85 0 0 0-14.292-19.849 559.085 559.085 0 0 0-143.109-18.261c-79.395 0-187.571 17.864-267.562 99.243-79.395-82.173-188.365-99.243-267.562-99.243a559.085 559.085 0 0 0-143.109 18.261 19.85 19.85 0 0 0-14.291 19.849V205.6h-66.89C8.89 205.6.002 214.487.002 225.447v633.971c0 10.962 8.887 19.849 19.849 19.849a19.829 19.829 0 0 0 9.726-2.58c1.985-.993 200.472-109.566 477.563-39.698h4.763c1.582.192 3.18.192 4.763 0 277.883-70.462 476.37 37.912 477.563 39.698a19.847 19.847 0 0 0 29.773-17.07V225.646c0-10.962-8.885-19.849-19.849-19.849zM39.698 827.858V245.495h47.439v497.808c-.124 10.96 8.662 19.948 19.623 20.072a19.729 19.729 0 0 0 3.203-.225 869.087 869.087 0 0 1 124.054-9.924 514.86 514.86 0 0 1 169.509 25.605 729.676 729.676 0 0 0-363.828 49.026zm194.319-114.13a873.25 873.25 0 0 0-107.977 6.947V198.453a547.48 547.48 0 0 1 117.703-13.1c74.235 0 176.655 17.07 247.713 97.258l.596 494.435c-41.285-26.995-121.872-63.318-258.035-63.318zM531.75 282.611c71.058-79.395 173.478-97.258 247.713-97.258a549.678 549.678 0 0 1 117.703 13.1v522.222a873.17 873.17 0 0 0-107.383-7.146c-135.369 0-216.154 36.325-258.033 63.318V282.612zm452.354 545.247a729.828 729.828 0 0 0-364.623-49.026 516.066 516.066 0 0 1 170.302-25.605 868.391 868.391 0 0 1 124.849 9.726c10.838 1.644 20.957-5.809 22.603-16.645.161-1.061.236-2.132.223-3.204V245.495h47.439l-.794 582.363z"/>
</svg>
