<svg xmlns="http://www.w3.org/2000/svg" viewBox="0 0 1024 1024">
  <path d="m956.206 503.323-39.992-40.405V78.476l33.602-33.948c6.588-6.655 6.588-17.446 0-24.1a16.748 16.748 0 0 0-23.856 0l-33.602 33.948H511.836l-39.992-40.403c-6.586-6.655-17.268-6.655-23.854 0s-6.586 17.446 0 24.1l38.283 38.677-118.728 508.302a48.758 48.758 0 0 0-8.481 44.222c5.104 17.121 19.046 29.964 36.388 33.519l75.713 15.527c14.354 2.946 26.563 12.112 33.492 25.151a49.918 49.918 0 0 1 2.242 42.095c-8.952 22.307-32.375 34.882-55.673 29.888L167.572 714.74c-42.709-9.144-85.77 15.351-100.192 56.978-8.363 24.138-5.922 50.702 6.694 72.871 12.618 22.174 34.111 37.672 58.961 42.516l1.175.23c22.352 4.356 41.334 18.486 52.08 38.763 10.743 20.279 11.857 44.07 3.05 65.283-3.604 8.681.442 18.667 9.033 22.309a16.675 16.675 0 0 0 6.516 1.329c6.593 0 12.852-3.929 15.559-10.457 12.751-30.72 11.142-65.182-4.421-94.549-15.561-29.367-43.056-49.833-75.425-56.142l-1.175-.23c-15.222-2.966-28.383-12.457-36.11-26.037s-9.221-29.845-4.098-44.628c8.83-25.492 35.212-40.484 61.355-34.891l283.647 60.714c39.331 8.418 78.828-12.787 93.931-50.426 9.288-23.139 7.908-49.024-3.782-71.022-11.688-22-32.281-37.462-56.501-42.43l-75.713-15.527c-7.531-1.545-10.059-7.472-10.797-9.947-.598-2.003-1.448-6.546 1.13-11.115l501.57-119.582 38.283 38.678a16.749 16.749 0 0 0 23.859 0c6.59-6.66 6.59-17.451.004-24.105zM858.62 88.46 702.097 246.594 545.572 88.46H858.62zm-344.303 16.623L678.24 270.695 413.056 538.617l101.261-433.534zM436.912 562.72l265.185-267.922 163.924 165.613-429.11 102.308zm445.562-133.889L725.951 270.695l156.523-158.136v316.272z"/>
</svg>
