<svg xmlns="http://www.w3.org/2000/svg" viewBox="0 0 1024 1024">
  <path d="m963.822 570.516-16.271-265.772c-1.055-17.214-8.046-32.925-19.679-44.235-11.637-11.31-26.509-16.848-41.872-15.594-30.201 2.465-53.625 30.961-53.325 64.874l1.92 216.662-83.796 120.201c-13.378 19.187-35.573 26.891-55.706 21.113l91.174-132.608c16.004-23.276 13.343-56.995-6.053-76.765-10.355-10.558-23.746-15.773-37.722-14.678-13.968 1.093-26.587 8.338-35.535 20.405L569.222 649.898c-22.716 30.641-35.034 69.445-34.69 109.27l2.139 246.715c.084 9.832 7.219 17.755 16 17.77l229.343.349h.022c4.485 0 8.766-2.107 11.8-5.808 3.041-3.708 4.551-8.673 4.16-13.691l-9.36-120.764 152.249-226.62c16.689-24.836 24.832-55.594 22.936-86.603zm-48.54 65.03L759.343 867.659c-2.375 3.536-3.502 7.932-3.16 12.341l8.379 108.087-195.999-.298-1.984-228.968c-.274-31.342 9.423-61.879 27.299-85.992l137.735-185.783c3.301-4.453 7.958-7.126 13.111-7.526 5.155-.411 10.101 1.518 13.923 5.416 7.159 7.296 8.139 19.739 2.233 28.326L657.416 663.746c-2.714 3.944-3.84 8.975-3.11 13.886.728 4.912 3.248 9.265 6.95 12.016 37.027 27.505 87.457 18.322 114.8-20.904l87.247-125.149c2.235-3.202 3.429-7.159 3.394-11.222l-1.977-222.936c-.133-15.013 10.238-27.63 23.609-28.723 6.833-.55 13.389 1.898 18.54 6.903 5.153 5.008 8.245 11.963 8.713 19.586l16.271 265.772c1.37 22.404-4.511 44.624-16.569 62.572zM313.123 464.115c-8.947-12.067-21.566-19.315-35.535-20.405-13.961-1.092-27.365 4.12-37.718 14.676-19.399 19.772-22.059 53.493-6.056 76.769l91.176 132.608c-20.12 5.771-42.328-1.924-55.706-21.113l-83.798-120.201 1.921-216.662c.299-33.913-23.121-62.409-53.323-64.874-15.343-1.245-30.231 4.281-41.872 15.594-11.634 11.31-18.624 27.021-19.68 44.235L56.26 570.512c-1.899 31.009 6.247 61.767 22.931 86.605l152.251 226.62-9.36 120.764c-.391 5.014 1.119 9.982 4.159 13.691 3.036 3.701 7.317 5.808 11.8 5.808h.022l229.343-.349c8.781-.015 15.916-7.938 16-17.772l2.141-246.713c.344-39.823-11.973-78.627-34.69-109.268L313.122 464.115zm138.395 523.668-195.997.3 8.379-108.087c.342-4.411-.781-8.806-3.158-12.343L104.801 635.54c-12.057-17.946-17.939-40.168-16.569-62.57l16.272-265.772c.468-7.623 3.561-14.579 8.714-19.588 4.672-4.54 10.523-6.978 16.646-6.978.628 0 1.258.026 1.893.075 13.371 1.092 23.739 13.709 23.606 28.725l-1.976 222.936c-.036 4.063 1.16 8.02 3.395 11.222l87.246 125.149c27.346 39.225 77.773 48.402 114.801 20.906 3.705-2.752 6.223-7.104 6.952-12.016s-.4-9.944-3.11-13.89l-103.468-150.48c-5.904-8.589-4.924-21.032 2.238-28.328 3.822-3.899 8.761-5.815 13.917-5.418 5.155.402 9.812 3.077 13.113 7.53l137.735 185.781c17.876 24.117 27.573 54.654 27.301 85.994l-1.988 228.965zM823.914 201.927c0-53.935-18.754-104.643-52.807-142.783C737.054 21.002 691.78-.001 643.621-.001c-48.155 0-93.431 21.003-127.486 59.142l-6.093 6.826-6.095-6.826C469.895 21.002 424.62-.001 376.461-.001c-48.155 0-93.431 21.003-127.486 59.142-70.294 78.731-70.294 206.834.002 285.569L498.71 624.412c3.131 3.502 7.232 5.257 11.332 5.257s8.201-1.752 11.332-5.257l249.733-279.704c34.053-38.139 52.807-88.847 52.807-142.782zM510.043 586.348 271.636 319.333c-57.802-64.739-57.802-170.075 0-234.814 27.999-31.358 65.229-48.629 104.825-48.629 39.6 0 76.827 17.27 104.828 48.631l17.423 19.515c3.004 3.366 7.078 5.257 11.33 5.257s8.325-1.893 11.332-5.257l17.421-19.515C566.796 53.16 604.026 35.89 643.622 35.89c39.6 0 76.827 17.27 104.827 48.631s43.421 73.056 43.421 117.406c0 44.352-15.42 86.045-43.421 117.407L510.045 586.347z"/>
</svg>
