<svg xmlns="http://www.w3.org/2000/svg" viewBox="0 0 1024 1024">
  <path d="M992.642 432.477H931.61c-11.312 0-21.281 5.811-27.109 14.594-46.656-4.875-52.875-12.352-57.915-18.447a95.968 95.968 0 0 0-24.179-20.899l-140.242-85.186c-28.562-66.344-76.337-107.822-111.79-131.072-13.804-9.054-22.047-24.39-22.047-41.023a49.029 49.029 0 0 1 8.36-27.438L591.563 71.1c6.952-10.336 9.351-22.742 6.766-34.93s-9.821-22.547-20.367-29.18A45.676 45.676 0 0 0 553.68-.002H387.977c-8.602 0-17 2.422-24.282 6.992-10.547 6.625-17.781 16.984-20.367 29.18-2.586 12.187-.188 24.594 6.766 34.93l34.875 51.906a49.027 49.027 0 0 1 8.36 27.438c0 16.633-8.243 31.969-22.047 41.023-52.54 34.454-169.946 136-125.555 334.462 24.757 110.694 43.882 188.71 55.382 226.249H53.774c-20.398 0-38.234 14.501-42.399 34.469l-8.453 40.58c-2.672 12.82.531 25.999 8.797 36.164 8.258 10.156 20.508 15.984 33.602 15.984h851.016c13.102 0 25.344-5.828 33.609-15.984 8.258-10.165 11.461-23.344 8.79-36.164l-8.453-40.58c-4.164-19.968-22-34.469-42.399-34.469H640.548c3.438-11.226 7.587-26.163 12.39-44.663h16.282c47.773 0 95.117-7.133 140.758-21.204l93.226-11.75c5.572 9.953 16.205 16.711 28.407 16.711h61.032c17.929 0 32.523-14.587 32.523-32.523V465.006c0-17.936-14.594-32.53-32.523-32.53zM372.679 42.398c.883-4.18 3.361-7.726 6.978-10a15.62 15.62 0 0 1 8.32-2.399H553.68c2.946 0 5.828.828 8.32 2.399 3.617 2.273 6.093 5.82 6.985 10 .881 4.172.053 8.43-2.32 11.969l-17.258 25.687H392.25l-17.258-25.687a15.48 15.48 0 0 1-2.313-11.969zm15.048 174.156c22.298-14.616 35.61-39.335 35.61-66.109 0-14.305-3.86-28.164-11.125-40.391h117.235c-7.267 12.227-11.118 26.086-11.118 40.391 0 26.773 13.305 51.493 35.602 66.109a289.586 289.586 0 0 1 29.632 22.267H358.181c10.5-9.017 20.624-16.415 29.546-22.267zm513.188 576.219 8.452 40.578c1.126 5.391-1.211 9.275-2.703 11.11s-4.82 4.913-10.328 4.913H45.32c-5.508 0-8.836-3.077-10.328-4.913s-3.828-5.72-2.703-11.11l8.453-40.578c1.281-6.14 6.766-10.593 13.031-10.593h834.102c6.274 0 11.75 4.453 13.04 10.593zm-291.853-40.594H332.593c-6.179-18.414-21.866-73.117-57.593-232.805-15.062-67.335-11.461-128.296 10.633-181.641h55.258c8.289 0 15-6.711 15-15s-6.711-15-15-15h-40.384a260.695 260.695 0 0 1 27.664-38.914h285.422a258.924 258.924 0 0 1 27.617 38.914H400.969c-8.289 0-15 6.711-15 15s6.711 15 15 15h198.782c-3.822 9.337-4.603 19.602-2.158 29.586 3.07 12.476 10.812 23.024 21.782 29.665l25.788 15.664H478.445c-26.476 0-47.945 20.367-48.867 46.367-.251 6.923.953 13.648 3.469 19.851h-15.384c-13.179 0-25.468 5.219-34.624 14.704-9.141 9.477-13.93 21.961-13.453 35.149.726 20.603 14.358 37.665 33.163 43.867a47.78 47.78 0 0 0-4.641 20.61c0 26.523 21.586 48.11 48.11 48.11h22.727a47.843 47.843 0 0 0-3.54 18.108c0 26.531 21.586 48.11 48.11 48.11h108.414c-6.305 23.843-10.359 37.211-12.868 44.656zm195.861-95.468c-.883.11-1.743.296-2.586.554a447.156 447.156 0 0 1-133.118 20.25H513.516c-9.984 0-18.108-8.124-18.108-18.108s8.124-18.11 18.108-18.11h98.32c8.282 0 15-6.718 15-15 0-8.289-6.718-15-15-15H446.219c-9.984 0-18.108-8.124-18.108-18.11 0-9.984 8.124-18.108 18.108-18.108h165.617c8.282 0 15-6.711 15-15s-6.718-15-15-15H418.454c-10.079 0-18.547-7.821-18.891-17.439-.172-4.968 1.626-9.679 5.063-13.25 3.452-3.562 8.077-5.531 13.038-5.531h194.172c8.282 0 15-6.718 15-15 0-8.289-6.718-15-15-15H477.655a17.97 17.97 0 0 1-13.038-5.539c-3.438-3.562-5.235-8.272-5.063-13.25.344-9.609 8.821-17.43 18.891-17.43h206.758c8.523 0 15.797-5.515 18.101-13.727 2.297-8.21-1.055-16.702-8.344-21.124l-60.023-36.462c-4.142-2.507-7.047-6.469-8.203-11.173a17.943 17.943 0 0 1 2.094-13.694c5.171-8.547 16.335-11.282 24.859-6.126l153.148 93.023a65.996 65.996 0 0 1 16.633 14.384c12.264 14.821 28.016 23.711 75.61 28.913v168.172l-94.157 11.884zm190.242 2.039a2.528 2.528 0 0 1-2.523 2.523H931.61a2.535 2.535 0 0 1-2.531-2.523V465a2.527 2.527 0 0 1 2.531-2.523h61.032a2.527 2.527 0 0 1 2.523 2.523v193.75zM719.258 975.611l-78.126-62.852c-6.453-5.195-15.899-4.164-21.085 2.289-5.197 6.453-4.173 15.898 2.28 21.085L694.265 994H247.39l72.086-57.984c6.453-5.188 7.477-14.632 2.282-21.085-5.188-6.462-14.634-7.477-21.087-2.289l-78.272 62.961c-9.117 7.334-12.493 19.202-8.611 30.234 3.884 11.032 13.961 18.163 25.657 18.163h462.766c11.696 0 21.765-7.124 25.657-18.163 3.882-11.032.508-22.899-8.609-30.226z"/>
</svg>
