<svg xmlns="http://www.w3.org/2000/svg" viewBox="0 0 1024 1024">
  <path d="M973.25 382.459h-20.345v-75.611c0-44.698-36.363-81.061-81.061-81.061H578.062c-27.235 0-51.357 13.513-66.063 34.171-14.705-20.659-38.828-34.171-66.063-34.171H261.373c-8.283 0-15 6.715-15 15 0 8.283 6.716 15 15 15h184.563c28.156 0 51.063 22.907 51.063 51.061v150.021c-.315-.304-.645-.585-.964-.883-17.781-16.578-41.878-26.134-66.203-26.134H179.977c-1.322-20.14-15.052-37.853-33.998-44.57-5.338-1.893-10.982-2.823-16.644-2.823h-28.242v-75.611c0-28.155 22.906-51.061 51.062-51.061h49.217c8.285 0 15.002-6.716 15.002-15 0-8.285-6.716-15-15.002-15h-49.217c-44.698 0-81.062 36.363-81.062 81.061v75.611H50.749c-27.984 0-50.75 22.769-50.75 50.748V589.83c0 58.277 47.412 105.688 105.688 105.688h7.538l-16.436 44.211c-10.362 27.867 10.966 58.481 40.65 58.481h24.132c13.508 0 26.438-6.433 34.588-17.207l64.662-85.486h502.36l64.662 85.488c8.15 10.772 21.08 17.205 34.586 17.205h24.13c29.722 0 51.012-30.619 40.651-58.481l-16.439-44.211h7.541c58.277 0 105.688-47.411 105.688-105.688V433.207c0-27.979-22.766-50.748-50.75-50.748zM527 306.853c0-28.158 22.907-51.065 51.063-51.065h293.782c28.156 0 51.061 22.907 51.061 51.061v75.611h-28.244c-19.944 0-39.075 12.8-46.811 31.163a50.413 50.413 0 0 0-3.827 16.232H594.168c-24.7 0-49.318 9.938-67.167 27.017v-150.02zm-346.912 153h249.745c37.038.004 67.167 30.133 67.167 67.169v21.33H180.088v-88.499zm-7.854 303.053a13.439 13.439 0 0 1-10.664 5.305h-24.132c-9.184 0-15.73-9.423-12.53-18.026l20.324-54.667h77.973l-50.971 67.388zm714.325 5.302h-24.13c-4.164 0-8.15-1.982-10.661-5.303l-50.973-67.388h77.972l20.325 54.665c3.205 8.624-3.387 18.026-12.533 18.026zm31.753-102.69H105.688C63.954 665.52 30 631.563 30 589.83V433.207c0-11.441 9.308-20.749 20.75-20.749h78.586c11.442 0 20.75 9.307 20.75 20.749V563.35c0 8.283 6.716 15 15 15h550.953c8.285 0 15-6.716 15-15s-6.715-15-15-15h-189.04v-21.33c0-37.036 30.129-67.167 67.167-67.167H843.91v88.499h-67.871c-8.283 0-15 6.716-15 15s6.716 15 15 15h82.871c8.285 0 15.002-6.716 15.002-15V433.211c0-11.443 9.307-20.751 20.749-20.751h78.587c11.441 0 20.751 9.307 20.751 20.751V589.83h.002c0 41.733-33.955 75.688-75.688 75.688z"/>
</svg>
