<svg xmlns="http://www.w3.org/2000/svg" viewBox="0 0 1024 1024">
  <path d="M403.549 380.718c-8.512-10.436-20.633-16.547-33.249-16.767-25.381-.365-46.376 22.298-46.806 50.701-.138 9.157 6.376 16.704 14.55 16.858.086.002.169.002.255.002 8.059 0 14.659-7.24 14.796-16.3.151-10.145 7.596-18.285 16.74-18.107 4.565.079 8.776 2.201 11.857 5.977 5.513 6.762 14.879 7.234 20.913 1.058 6.034-6.173 6.46-16.662.945-23.423zM482.304 434.753c-4.536-11.945-13.369-21.373-24.238-25.868-21.856-9.029-46.222 3.519-54.319 27.97-2.844 8.587 1.065 18.127 8.729 21.312a13.36 13.36 0 0 0 5.145 1.04c6.015 0 11.666-4.134 13.881-10.818 2.431-7.344 9.759-11.102 16.312-8.393 3.293 1.362 5.867 4.109 7.243 7.734 3.2 8.424 11.895 12.354 19.415 8.769 7.526-3.582 11.029-13.317 7.831-21.745zM577.708 287.924c-5.786-6.471-15.159-6.457-20.933.023l-13.953 15.66c-5.774 6.482-5.765 16.979.022 23.444 2.887 3.23 6.672 4.843 10.456 4.843 3.792 0 7.587-1.622 10.477-4.867l13.955-15.66c5.774-6.48 5.765-16.979-.023-23.444zM485.615 501.947h-19.729c-8.178 0-14.803 7.423-14.803 16.58 0 9.155 6.625 16.578 14.803 16.578h19.729c8.178 0 14.803-7.423 14.803-16.578 0-9.157-6.625-16.58-14.803-16.58zM636.887 501.947h-19.731c-8.178 0-14.803 7.423-14.803 16.58 0 9.155 6.627 16.578 14.803 16.578h19.731c8.174 0 14.803-7.423 14.803-16.578 0-9.157-6.629-16.58-14.803-16.58z"/>
  <path d="m1022.883 800.881-3.855-23.302c-2.458-14.891-14.067-25.697-27.605-25.697-1.698 0-3.412.174-5.097.521l-78.474 16.145 35.538-26.608c9.315-6.972 14.022-19.443 11.99-31.816a33.907 33.907 0 0 0-3.153-9.685l-10.756-21.328c-3.685-7.328-9.969-12.773-17.221-14.931-3.553-1.062-7.267-1.297-10.892-.769a468.273 468.273 0 0 0 5.998-74.878c0-11.284-6.06-20.996-14.713-25.307 11.309-30.125 12.081-64.614.902-96.199-.905-2.567-2.253-4.86-3.995-6.814-1.728-1.937-3.751-3.433-6.047-4.466-13.395-5.975-27.474-9.002-41.844-9.002-1.838 0-3.667.052-5.49.149-2.052-46.272-36.244-83.212-77.987-83.212-5.497 0-10.858.654-16.035 1.874 3.597-24.095 1.479-49.301-6.9-72.966a20.816 20.816 0 0 0-4.089-7.028c-1.768-1.98-3.843-3.509-6.144-4.531-14.429-6.437-29.595-9.699-45.076-9.699-23.322 0-45.631 7.342-64.889 20.994-7.037-22.828-18.64-44.258-34.852-62.457-4.748-5.328-11.065-8.264-17.783-8.264-6.721 0-13.037 2.935-17.791 8.267l-71.671 80.454c-13.263-13.249-30.716-21.17-49.66-21.17a67.48 67.48 0 0 0-12.899 1.254c-15.441 3.011-29.649 11.474-40.541 23.87-13.968-7.549-29.969-10.123-45.345-7.127a68.525 68.525 0 0 0-9.85 2.72v-61.997c0-42.694-30.637-77.489-68.536-78.223v-35.161c11.602-2.248 20.458-13.572 20.458-27.198V27.629c0-15.235-11.066-27.631-24.671-27.631H133.532c-13.605 0-24.671 12.397-24.671 27.631v79.665c0 13.626 8.858 24.95 20.459 27.198v35.156c-37.899.732-68.534 35.527-68.534 78.224v483.872c-29.554 29.894-47.952 71.605-47.952 117.729 0 90.732 71.102 164.55 158.5 164.55l592.472-.194c20.221-.009 39.241-9.963 52.175-27.307 12.601-16.883 17.954-38.815 14.87-60.443l118.337 23.82a25.36 25.36 0 0 0 4.98.498c5.901 0 11.555-2.03 16.343-5.864 6.157-4.924 10.323-12.548 11.435-20.911l3.205-24.087c.462-3.451.41-6.925-.153-10.332-2.035-12.317-10.411-22.09-21.335-24.894l-41.709-10.716 78.395-16.131c7.394-1.52 13.808-6.169 18.064-13.089 4.247-6.904 5.835-15.247 4.473-23.495zM853.658 479.898c8.911 0 17.672 1.581 26.096 4.696 7.527 25.672 4.71 53.363-7.076 76.238h-39.877l12.725-14.284c5.774-6.482 5.763-16.979-.027-23.448-5.788-6.467-15.161-6.457-20.933.027l-6.731 7.558c-3.156-11.638-8.666-22.059-15.91-30.607 14.692-13.066 32.727-20.18 51.734-20.18zm-83.477-83.062c26.732 0 48.48 24.43 48.48 54.461 0 .557-.023 1.108-.038 1.66-15.603 5.684-29.985 15.179-42.252 28.072-1.953-.828-3.933-1.599-5.964-2.228-4.331-26.2-20.094-47.199-40.919-57.008 8.643-14.995 23.638-24.957 40.692-24.957zm-78.248-92.35c10.055 0 19.936 1.822 29.455 5.425 7.653 25.481 6.09 52.855-3.661 76.565-8.014 8.178-14.517 18.191-18.962 29.446a62.528 62.528 0 0 0-7.897 1.008c-11.598 2.262-22.415 7.899-31.466 16.073a88.206 88.206 0 0 0-11.198-17.408l33.946-38.105c5.774-6.48 5.761-16.979-.027-23.444-5.786-6.467-15.159-6.457-20.935.027l-37.101 41.648c-7.06-3.738-14.69-6.338-22.709-7.554 3.464-19.783 12.036-38.425 25.295-53.311 17.446-19.585 40.622-30.37 65.259-30.37zM578.506 560.832h-12.831c-2.161-6.158-7.504-10.524-13.77-10.524s-11.609 4.367-13.77 10.524h-15.096c3.507-6.392 2.797-14.862-2.15-20.394-5.786-6.467-15.161-6.457-20.935.025l-13.952 15.658c-1.254 1.407-2.217 3.009-2.926 4.71h-30.127c-11.284-19.393-18.17-42.282-18.985-66.907h234.841c-.816 24.625-7.702 47.514-18.985 66.907h-31.352c-.706-1.701-1.673-3.307-2.925-4.712l-13.95-15.66c-5.778-6.478-15.146-6.496-20.933-.025-4.953 5.53-5.661 14.002-2.154 20.397zM544.08 460.768c5.58-23.16 24.441-40.25 46.795-40.25 22.357 0 41.219 17.092 46.799 40.25H544.08zm30.271-203.857c14.079 17.043 23.389 37.279 27.955 58.548-7.558 9.198-13.837 19.363-18.788 30.177-2.249-1.543-4.883-2.447-7.712-2.447h-19.724c-8.176 0-14.803 7.423-14.803 16.58 0 9.155 6.627 16.578 14.803 16.578h17.302a153.033 153.033 0 0 0-2.278 13.88 72.727 72.727 0 0 0-16.743 7.326c-9.866-19.07-26.205-33.282-45.563-38.982-.005-.047-.014-.093-.022-.14-1.161-7.502-3.185-14.62-5.946-21.236l71.518-80.283zM306.763 406.51a54.594 54.594 0 0 1-1.958-8.307c-4.245-27.413 12.254-53.604 36.772-58.384a40.848 40.848 0 0 1 7.808-.762c9.751 0 19.072 3.485 26.947 10.075 3.259 2.727 7.38 3.83 11.39 3.052 4.012-.78 7.558-3.374 9.807-7.173 6.951-11.74 17.582-19.53 29.937-21.939a40.865 40.865 0 0 1 7.824-.76c21.932 0 40.572 17.573 44.318 41.788.431 2.776.652 5.666.656 8.594.013 8.582 5.873 15.735 13.508 16.486 16.549 1.629 30.637 13.294 37.168 29.728-8.744 11.753-14.805 26.103-17.106 41.858h-84.417c-10.497 0-19.503 7.256-23.257 17.527-18.572-14.167-40.461-21.8-63.4-21.8-14.37 0-28.447 3.031-41.853 9.008-2.274 1.017-4.306 2.519-6.04 4.459a20.181 20.181 0 0 0-3.988 6.802c-3.406 9.622-5.679 19.515-6.906 29.47-5.305-6.766-9.044-15.177-10.504-24.616-3.482-22.494 7.031-44.891 25.559-54.466 6.963-3.6 10.321-12.556 7.737-20.64zm44.128 149.79 4.039 4.533h-35.553c-7.982-20.739-9.193-44.345-2.714-66.485 8.436-3.121 17.194-4.698 26.096-4.698 22.305 0 43.288 9.764 59.079 27.49a90.8 90.8 0 0 1 5.892 7.384 177.333 177.333 0 0 0 11.329 36.307h-22.307l-24.903-27.953c-5.778-6.48-15.15-6.498-20.933-.027-5.788 6.469-5.801 16.968-.025 23.45zm-63.039 4.532h-52.77c2.352-16.059 10.977-29.748 22.948-37.822 7.089 10.635 16.339 19.233 26.996 25.059.755 4.301 1.68 8.566 2.826 12.762zM138.463 33.158h110.509v68.612H138.463V33.158zm90.049 101.77v34.69h-69.587v-34.69h69.587zM90.391 315.11h96.125c8.176 0 14.801-7.423 14.801-16.58 0-9.155-6.625-16.578-14.801-16.578H90.391v-34.078c0-24.869 18.008-45.099 40.143-45.099h126.37c22.136 0 40.144 20.23 40.144 45.099v34.078h-27.639c-8.178 0-14.803 7.423-14.803 16.578 0 9.157 6.625 16.58 14.803 16.58h27.639v14.715c-16.959 18.622-25.767 45.934-21.418 74.028.007.056.018.113.025.171-23.748 18.247-36.401 50.688-31.361 83.257a95.2 95.2 0 0 0 1.065 5.621c-7.394 4.567-14.036 10.465-19.729 17.365H90.39V315.111zm-.002 228.312h118.053a96.265 96.265 0 0 0-3.221 17.41h-2.494c-13.625 0-24.711 12.426-24.711 27.698 0 26.326 2.185 52.168 6.419 77.452a145.662 145.662 0 0 0-13.052-.587c-17.901 0-34.958 3.18-48.022 8.959-19.983 8.837-25.508 21.385-26.714 30.07a157.922 157.922 0 0 0-6.259 3.703V543.423zm187.442 203.667c5.33 4.777 8.589 8.837 10.479 11.767-.178.002-.365.004-.552.004-8.379 0-23.432-3.782-40.549-14.395-6.374-3.954-12.245-8.422-16.982-12.915-5.522-5.242-13.621-5.237-19.138.002-4.737 4.498-10.606 8.964-16.975 12.91-17.121 10.617-32.174 14.399-40.55 14.399-.191 0-.375-.002-.555-.004 1.887-2.93 5.145-6.992 10.478-11.772 4.66-4.177 6.624-11.083 4.98-17.509-1.646-6.428-6.576-11.122-12.507-11.9-14.445-1.895-23.579-6.015-27.857-9.011 5.359-3.738 18.906-10.111 43.285-10.111 20.191 0 34.948 4.754 42.026 9.205 4.502 2.829 9.99 2.829 14.492.004 7.082-4.452 21.842-9.207 42.031-9.207 24.382 0 37.928 6.376 43.283 10.111-4.274 3-13.411 7.116-27.86 9.013-5.93.78-10.863 5.47-12.507 11.9-1.649 6.43.314 13.335 4.978 17.51zm-29.612 201.789.51 3.072c1.761 10.648 5.472 20.421 10.659 28.918h-88.057c-71.072 0-128.895-58.941-128.895-131.392 0-49.515 27.016-92.699 66.797-115.092 4.569 3.821 10.265 7.114 17.023 9.771-2.68 5.125-4.547 10.639-4.987 16.389-.584 7.644 1.504 14.904 5.885 20.442 5.789 7.321 14.674 11.032 26.41 11.032 15.64 0 36.16-6.934 54.89-18.549a143.77 143.77 0 0 0 12.207-8.444 145.481 145.481 0 0 0 12.207 8.447c18.73 11.611 39.25 18.543 54.89 18.545h.002c11.731 0 20.617-3.712 26.405-11.03 4.383-5.539 6.473-12.798 5.887-20.444-.44-5.751-2.308-11.264-4.987-16.389 6.757-2.659 12.455-5.954 17.024-9.771 31.55 17.76 55.059 48.599 63.441 85.301l-104.694 44.544c-30.646 13.041-48.568 48.64-42.616 84.649zm545.04 16.389c-7.299 9.787-18.042 15.403-29.47 15.407l-15.536.007-9.706-58.7c-1.491-9.004-9.209-14.958-17.252-13.283-8.038 1.667-13.348 10.315-11.86 19.319l8.711 52.675-50.932.022-6.563-39.693c-1.489-9.004-9.211-14.95-17.252-13.283-8.038 1.667-13.348 10.315-11.86 19.319l5.567 33.672-118.471.05-8.916-53.911c-1.493-9.002-9.209-14.949-17.252-13.28-8.039 1.665-13.348 10.317-11.86 19.321l7.921 47.882-172.981.075h-.013c-18.497 0-34.351-14.699-37.701-34.962l-.508-3.072c-3.347-20.239 6.755-40.261 24.019-47.609l58.178-24.754 4.335 26.2c1.32 7.982 7.542 13.562 14.535 13.562.896 0 1.804-.093 2.716-.28 8.036-1.669 13.346-10.319 11.855-19.323l-5.314-32.125 86.357-36.744c7.642-3.252 11.485-12.827 8.582-21.387s-11.463-12.863-19.093-9.611l-40.186 17.099c-11.275-44.704-40.236-82.046-78.641-103.44-1.205-8.682-6.73-21.231-26.712-30.07-13.064-5.778-30.12-8.959-48.022-8.959-12.319 0-24.084 1.523-34.469 4.297v-10.014c0-9.155-6.625-16.578-14.803-16.578-3.456 0-6.625 1.335-9.146 3.559a432.931 432.931 0 0 1-3.859-52.67h482.146c8.178 0 14.803-7.423 14.803-16.58 0-9.155-6.625-16.578-14.803-16.578h-6.058c9.426-21.743 14.751-46.121 14.751-71.885 0-14.627-9.992-26.676-22.726-28.045 5.544-5.855 12.462-9.803 20.176-11.309a35.916 35.916 0 0 1 6.819-.663c19.111 0 35.35 15.313 38.612 36.406.377 2.441.571 4.962.573 7.493.009 8.585 5.871 15.743 13.508 16.495 17.69 1.739 32.163 16.641 35.197 36.235.805 5.21.704 10.351-.102 15.272H774.67c-8.178 0-14.803 7.423-14.803 16.578 0 9.157 6.625 16.58 14.803 16.58h115.049c-.366 30.411-3.864 60.12-10.387 88.942l-80.222 53.038c-4.906-19.125-16.31-35.348-32.022-45.198-17.624-11.045-38.565-12.771-57.454-4.737l-165.218 70.298c-7.644 3.252-11.485 12.829-8.582 21.387 2.903 8.562 11.462 12.859 19.093 9.611l21.766-9.259 6.757 40.865c1.32 7.984 7.542 13.565 14.539 13.565.893 0 1.802-.093 2.713-.282 8.038-1.665 13.348-10.315 11.86-19.319l-7.739-46.797 115.32-49.068c10.686-4.543 22.524-3.57 32.484 2.675 9.944 6.232 16.833 16.975 18.901 29.47l29.946 181.074c2.066 12.487-.929 25.248-8.215 35.015zm52.815-129.771c-6.906 1.421-11.968 8.079-12.125 15.942-.153 7.863 4.646 14.764 11.489 16.522l110.211 28.311-2.754 20.688-127.763-25.715-19.972-120.769L916.444 696.9l9.27 18.385-93.865 70.275c-5.835 4.369-8.129 12.73-5.488 20.017 2.639 7.285 9.487 11.494 16.391 10.073l147.445-30.336 3.284 19.851-147.407 30.33z"/>
</svg>
