<svg xmlns="http://www.w3.org/2000/svg" viewBox="0 0 1024 1024">
  <path d="M694.682 310.294c-11.039 0-20.001 8.938-20.001 19.994 0 11.046 8.962 19.999 20.001 19.999 11.061 0 19.999-8.953 19.999-19.999 0-11.056-8.938-19.994-19.999-19.994zM331.29 673.679c-11.061 0-19.999 8.96-19.999 19.999 0 11.063 8.938 20.001 19.999 20.001 11.039 0 20.001-8.938 20.001-20.001 0-11.039-8.962-19.999-20.001-19.999z"/>
  <path d="M1000.117 123.041a19.983 19.983 0 0 0-18.717 5.391l-82.915 83.571h-39.749l-43.758-45.337v-40.305l81.726-82.945a19.981 19.981 0 0 0 5.202-18.672 19.984 19.984 0 0 0-13.061-14.312C868.314 3.51 846.828.002 824.977.002c-65.139 0-124.319 30.375-162.366 83.336-35.61 49.578-46.587 110.335-30.859 168.484L484.431 399.143l-245.438-246v-48.281a19.995 19.995 0 0 0-9.712-17.148L87.867 2.855a19.984 19.984 0 0 0-24.43 3.008L6.874 62.418a20.02 20.02 0 0 0-3.008 24.438L88.71 228.27a20.006 20.006 0 0 0 17.141 9.712l48.266.015 245.46 246L252.82 630.756c-58.149-15.72-118.937-4.727-168.539 30.907C31.351 699.686 1 758.85 1 823.991c0 21.844 3.508 43.335 10.43 63.859a19.983 19.983 0 0 0 14.422 13.094 20.005 20.005 0 0 0 18.727-5.391l82.906-83.564h39.969l45.539 45.539v39.969l-83.562 82.907a19.998 19.998 0 0 0-5.391 18.726 19.983 19.983 0 0 0 13.094 14.422c20.523 6.921 42.016 10.43 63.86 10.43 65.139 0 124.297-30.36 162.328-83.29 35.633-49.602 46.625-110.384 30.907-168.532l117.866-117.866 27.001 29.327-12.39 12.383c-7.812 7.813-7.812 20.476 0 28.29 7.812 7.804 20.469 7.804 28.29 0l11.218-11.218 253.328 275.171c.187.203.382.399.578.594 46.875 46.875 122.82 46.89 169.719-.007 46.766-46.789 46.766-122.922 0-169.712-.203-.203-.415-.399-.625-.594L713.612 565.684l11.094-11.094c7.813-7.804 7.813-20.467 0-28.281-7.812-7.812-20.469-7.812-28.288 0l-12.304 12.312-29.383-26.968 118.437-118.438c16.837 4.5 34.213 6.782 51.813 6.782 110.281 0 199.993-89.719 199.993-199.993 0-21.851-3.507-43.336-10.43-63.867a19.98 19.98 0 0 0-14.422-13.094zm-823.546 80.828c-3.75-3.758-8.836-5.672-14.149-5.672l-45.234-.015L46.204 79.666 80.68 45.19l118.313 71v45.234a19.99 19.99 0 0 0 5.844 14.125l251.312 251.883-28.288 28.281-251.29-251.844zm508.726 390.126 276.539 253.694c30.892 31.219 30.797 81.766-.289 112.869-31.155 31.155-81.593 31.25-112.874.272L594.516 684.76l90.781-90.765zm-29.5-27.07-88.399 88.382-26.999-29.328 86.014-86.023 29.383 26.97zm169.179-206.93c-17.492 0-34.695-2.805-51.116-8.336a20.035 20.035 0 0 0-20.524 4.813C653.07 456.738 437.022 672.776 357.469 752.339a19.992 19.992 0 0 0-4.813 20.531c16.625 49.368 8.671 102.023-21.828 144.485-30.415 42.335-77.744 66.626-129.836 66.626-5.851 0-11.672-.322-17.437-.938l63.523-63.031a19.994 19.994 0 0 0 5.914-14.195v-56.58c0-5.305-2.108-10.39-5.859-14.14l-57.258-57.258a20.003 20.003 0 0 0-14.141-5.859h-56.578a20.022 20.022 0 0 0-14.203 5.914l-63.024 63.525a161.794 161.794 0 0 1-.938-17.439c0-52.101 24.281-99.421 66.625-129.836 42.453-30.499 95.116-38.46 144.492-21.828a19.984 19.984 0 0 0 20.524-4.813c1.103-1.093 395.586-395.586 395.867-395.867a19.99 19.99 0 0 0 4.813-20.522c-16.633-49.368-8.695-102.009 21.782-144.438 30.437-42.375 77.773-66.672 129.874-66.672 6.031 0 12.023.336 17.96.992l-62.203 63.133a19.99 19.99 0 0 0-5.749 14.031v56.578a19.981 19.981 0 0 0 5.608 13.89l55.258 57.258a19.981 19.981 0 0 0 14.391 6.109h56.578a19.988 19.988 0 0 0 14.195-5.914l63.024-63.515c.625 5.765.938 11.586.938 17.437 0 88.219-71.773 159.993-159.993 159.993z"/>
  <path d="M623.978 372.707 373.703 622.982c-7.804 7.804-7.804 20.469 0 28.281 7.813 7.813 20.476 7.813 28.29 0L652.266 400.99c7.813-7.804 7.813-20.469 0-28.283-7.812-7.812-20.476-7.812-28.288 0zM876.71 904c7.813 7.788 20.476 7.788 28.29-.048 7.797-7.821 7.773-20.484-.048-28.281L724.679 695.975c-7.821-7.797-20.493-7.773-28.281.046-7.806 7.828-7.782 20.485.038 28.283L876.709 904z"/>
</svg>
