<svg xmlns="http://www.w3.org/2000/svg" viewBox="0 0 1024 1024">
  <path d="m926.367 410.255-19.661-23.631-69.007-211.145c-11.758-35.665-41.827-59.296-75.366-59.515H269.456c-33.539 0-63.609 23.85-75.367 59.515l-68.043 208.519-28.335 29.758c-24.673 23.848-38.937 58.858-38.937 95.616v307.639c.193 50.324 36.238 91.021 80.572 91.021h50.887c44.334 0 80.379-40.697 80.571-91.021v-44.637h478.034v44.637c.192 50.324 36.237 91.021 80.572 91.021h50.887c44.334 0 80.379-40.697 80.571-91.021V501.277c-.192-34.352-12.529-67.173-34.503-91.023zM230.328 190.358c6.168-18.599 21.781-30.633 39.129-30.633h493.069c17.348 0 32.962 12.253 39.13 30.633l60.14 183.795h-44.912c-10.602-82.052-77.873-138.723-150.157-126.469-57.635 9.627-102.932 61.047-111.413 126.469H170.189l60.14-183.795zM777.56 374.153H594.251c10.6-57.547 60.332-94.305 111.025-82.271 36.239 8.752 64.574 40.916 72.283 82.271zM232.255 817.011c-.193 26.256-18.89 47.261-42.021 47.261h-50.887c-23.131 0-41.828-21.005-42.021-47.261v-57.328c11.565 8.534 26.793 12.69 42.021 12.69h92.908v44.637zm690.065 0c-.194 26.256-18.891 47.261-42.021 47.261h-50.887c-23.131 0-41.829-21.224-42.022-47.261v-44.637h92.91c15.227 0 30.455-4.156 42.021-12.69v57.328zm-42.02-88.397H139.347c-22.938.218-41.828-20.568-42.021-46.824V509.372c0-24.068 9.445-47.042 25.636-62.577l.771-.876 26.215-28.006h729.965l18.503 22.537c.194.437.772.656.964 1.093 14.457 15.536 22.746 37.197 22.746 59.734V681.79h.194c-.194 26.037-19.083 47.042-42.021 46.824z"/>
  <path d="M313.212 505.437H168.646c-10.602 0-19.276 9.847-19.276 21.881v113.777c0 12.034 8.674 21.881 19.276 21.881h144.566c10.602 0 19.275-9.847 19.275-21.881V527.318c0-12.034-8.673-21.881-19.275-21.881zm-19.275 113.778H187.921v-70.016h106.016v70.016zM851.001 505.437H706.434c-10.602 0-19.275 9.847-19.275 21.881v113.777c0 12.034 8.673 21.881 19.275 21.881h144.567c10.602 0 19.275-9.847 19.275-21.881V527.318c0-12.034-8.673-21.881-19.275-21.881zm-19.275 113.778H725.709v-70.016h106.017v70.016zM602.926 597.33H416.723c-10.6 0-19.275 9.847-19.275 21.881s8.675 21.881 19.275 21.881h186.203c10.6 0 19.275-9.847 19.275-21.881s-8.675-21.881-19.275-21.881zM602.926 529.499H416.723c-10.6 0-19.275 9.847-19.275 21.881s8.675 21.881 19.275 21.881h186.203c10.6 0 19.275-9.847 19.275-21.881s-8.675-21.881-19.275-21.881z"/>
</svg>
