<svg data-name="Your Icons" id="Your_Icons" viewBox="0 0 48 48" xmlns="http://www.w3.org/2000/svg">
  <defs>
    <style>
      .cls-1{fill:#939598}.cls-3{fill:#fff}
    </style>
  </defs>
  <path class="cls-1" d="M38 14H19.91a5.47 5.47 0 0 1 .09 1 6 6 0 0 1-.82 3 5.5 5.5 0 0 1-.38.56.86.86 0 0 1-.07.1 5.63 5.63 0 0 1-1 1l-.15.11a4.27 4.27 0 0 1-.44.3l-.17.11a6.54 6.54 0 0 1-.59.3 4.83 4.83 0 0 1-.67.24h-.2l-.52.11h-.21A6.13 6.13 0 0 1 14 21a6 6 0 0 1-4-1.53V34a4 4 0 0 0 4 4h24a4 4 0 0 0 4-4V18a4 4 0 0 0-4-4Zm-26 8.75a8.36 8.36 0 0 0 2 .25 7.92 7.92 0 0 0 .85-.05h.21c.22 0 .43-.06.64-.11h.21a4.71 4.71 0 0 0 .64-.19l.16-.05a7.19 7.19 0 0 0 .76-.32 7.15 7.15 0 0 0 .77-.42h.06c.2-.13.41-.28.6-.43l.18-.14.45-.4.18-.18c.16-.16.32-.34.47-.52l.06-.07H35a1 1 0 0 1 1 1v1a4 4 0 0 0 0 8v1a1 1 0 0 1-1 1H12ZM34 26a2 2 0 0 1 2-2h4v4h-4a2 2 0 0 1-2-2Zm6 8a2 2 0 0 1-2 2H14a2 2 0 0 1-2-2h23a3 3 0 0 0 3-3v-1h2Zm-2-12v-1a3 3 0 0 0-3-3H21.41a7.86 7.86 0 0 0 .53-2H38a2 2 0 0 1 2 2v4Z"/>
  <circle class="cls-1" cx="36" cy="26" r="1"/>
  <path d="M14 7a8 8 0 1 0 8 8 8 8 0 0 0-8-8Z" style="fill:#fbb040"/>
  <path class="cls-3" d="M14 16a1 1 0 0 1-1-1v-3a1 1 0 0 1 2 0v3a1 1 0 0 1-1 1ZM14 17a1 1 0 1 0 1 1 1 1 0 0 0-1-1Z"/>
</svg>
