<svg xmlns="http://www.w3.org/2000/svg" viewBox="0 0 1024 1024">
  <path d="M1023.867 714.679C993.284 469.33 764.351 432.98 699.734 427.621V204.797c0-1.532-2.15-153.6-187.734-153.6s-187.734 152.068-187.734 153.6v222.824C259.65 432.981 30.808 469.331.133 714.679c0 .342-.133 1.71-.133 2.117v68.266c0 9.426 7.642 17.068 17.067 17.068H102.4v34.132H51.2c-9.425 0-17.067 7.642-17.067 17.068 0 41.317 24.967 119.466 119.467 119.466s119.466-78.149 119.466-119.466c0-9.426-7.642-17.068-17.066-17.068h-51.2V802.13h256v34.132h-51.2c-9.424 0-17.066 7.642-17.066 17.068 0 41.317 24.965 119.466 119.466 119.466s119.466-78.149 119.466-119.466c0-9.426-7.642-17.068-17.066-17.068h-51.2V802.13h256v34.132H768c-9.424 0-17.066 7.642-17.066 17.068 0 41.317 24.965 119.466 119.466 119.466s119.466-78.149 119.466-119.466c0-9.426-7.642-17.068-17.066-17.068h-51.2V802.13h85.334c9.424 0 17.066-7.642 17.066-17.068v-68.266c0-.391 0-1.708-.133-2.117zM358.4 204.796c0-4.884 1.708-119.467 153.6-119.467 150.833 0 153.6 114.65 153.6 119.467v221.866h-34.134v-102.4h-34.132v102.4H358.4V204.796zM197.976 493.904a396.083 396.083 0 0 1 143.358-33.108h341.332a396.078 396.078 0 0 1 143.358 33.108c86.067 35.617 147.184 113.717 161.059 205.826H36.917c13.875-92.109 74.992-170.209 161.059-205.826zM153.6 938.662c-41.583 3.125-78.325-26.891-83.542-68.266h166.999c-5.416 41.234-41.975 71.133-83.458 68.266zm17.067-102.4h-34.133V802.13h34.133v34.132zM512 938.662c-41.584 3.125-78.325-26.891-83.542-68.266h167c-5.416 41.234-41.975 71.133-83.458 68.266zm17.066-102.4h-34.132V802.13h34.132v34.132zm341.334 102.4c-41.616 3.176-78.409-26.858-83.624-68.266h167.082c-5.416 41.234-41.975 71.133-83.458 68.266zm17.066-102.4h-34.132V802.13h34.132v34.132zm102.4-68.266H34.133v-34.134h955.733v34.134z"/>
  <path d="M512 494.938c-47.126 0-85.334 38.208-85.334 85.334 0 47.124 38.208 85.332 85.334 85.332 47.124 0 85.332-38.208 85.332-85.332-.057-47.109-38.224-85.275-85.332-85.334zm0 136.534c-28.275 0-51.2-22.927-51.2-51.2 0-28.275 22.925-51.2 51.2-51.2s51.2 22.925 51.2 51.2c0 28.273-22.925 51.2-51.2 51.2z"/>
  <path d="M546.134 580.268c0 18.849-15.283 34.132-34.134 34.132-18.849 0-34.132-15.283-34.132-34.132 0-18.851 15.283-34.134 34.132-34.134 18.851 0 34.134 15.283 34.134 34.134zM597.334 256h34.134v34.134h-34.134V256zM597.334 204.798v17.066h34.132v-17.066c0-8.742-3.416-85.334-119.466-85.334v34.133c79.192 0 85.334 39.251 85.334 51.201zM358.4 563.196h34.132v34.134H358.4v-34.134zM290.132 563.196h34.134v34.134h-34.134v-34.134zM631.466 563.196H665.6v34.134h-34.134v-34.134zM699.734 563.196h34.132v34.134h-34.132v-34.134z"/>
</svg>
