<svg xmlns="http://www.w3.org/2000/svg" viewBox="0 0 512 512" xml:space="preserve">
  <path style="fill:#31c0d8" d="m449.306 125.388-104.49 73.143H62.694V52.245h282.122z"/>
  <path style="fill:#ffd248" d="M449.306 250.775v146.286H167.184l-104.49-73.143 104.49-73.143H287.347z"/>
  <path style="fill:#d1d3d4" d="M224.653 397.061h62.694v104.49h-62.694zM224.653 10.449h62.694v41.796h-62.694zM224.653 198.531h62.694v52.245h-62.694z"/>
  <path style="fill:#231f20" d="M449.306 240.327h-151.51V208.98h47.02c2.144 0 4.236-.659 5.991-1.889l104.49-73.143a10.448 10.448 0 0 0 0-17.12l-104.49-73.143a10.438 10.438 0 0 0-5.991-1.889h-47.02V10.449C297.796 4.678 293.117 0 287.347 0h-62.694c-5.771 0-10.449 4.678-10.449 10.449v31.347H62.694c-5.771 0-10.449 4.678-10.449 10.449v146.286c0 5.771 4.678 10.449 10.449 10.449h151.51v31.347h-47.02c-2.144 0-4.236.659-5.992 1.889l-104.49 73.143a10.448 10.448 0 0 0 0 17.12l104.49 73.143a10.443 10.443 0 0 0 5.992 1.889h47.02v94.041c0 5.771 4.678 10.449 10.449 10.449h62.694c5.77 0 10.449-4.678 10.449-10.449V407.51h151.51c5.77 0 10.449-4.678 10.449-10.449V250.775c0-5.77-4.679-10.448-10.449-10.448zM235.102 20.898h41.796v20.898h-41.796V20.898zM73.143 62.694h268.38l89.563 62.694-89.563 62.694H73.143V62.694zM235.102 208.98h41.796v31.347h-41.796V208.98zm41.796 282.122h-41.796V407.51h41.796v83.592zm161.959-104.49h-268.38l-89.562-62.694 89.562-62.694h268.38v125.388z"/>
  <path style="fill:#231f20" d="M109.714 88.816h57.469v20.898h-57.469zM109.714 141.061h198.531v20.898H109.714zM188.082 88.816h20.898v20.898h-20.898zM344.816 339.592h57.469v20.898h-57.469zM203.755 287.347h198.531v20.898H203.755zM303.02 339.592h20.898v20.898H303.02z"/>
</svg>
