<svg xmlns="http://www.w3.org/2000/svg" viewBox="0 0 1024 1024">
  <path d="M373.455 619.072c0-8.285-6.713-15-15-15H212.994c-8.287 0-15 6.715-15 15v96.975c0 8.285 6.713 15.002 15 15.002h145.461c8.287 0 15-6.716 15-15.002v-96.975zm-30 81.973H227.994V634.07h115.461v66.975zM730.196 698.732h80.812c8.285 0 15-6.716 15-15s-6.715-15-15-15h-80.812c-8.287 0-15.002 6.716-15.002 15s6.715 15 15.002 15zM730.196 634.072h80.812c8.285 0 15-6.716 15-15s-6.715-15-15-15h-80.812c-8.287 0-15.002 6.715-15.002 15 0 8.283 6.715 15 15.002 15z"/>
  <path d="M875.657 780.869c-8.285 0-15 6.716-15 15v192.94a5.208 5.208 0 0 1-5.204 5.204h-686.91a5.209 5.209 0 0 1-5.204-5.204V656.857c0-8.285-6.714-15-15-15s-15 6.715-15 15v331.95c0 19.412 15.792 35.204 35.204 35.204h686.91c19.41 0 35.204-15.792 35.204-35.204v-192.94c0-8.282-6.715-14.998-15-14.998zM855.455 509.122H607.812v-76.081c77.491-36.204 131.321-114.88 131.321-205.906C739.133 101.893 637.241.001 512.001.001c-43.467 0-85.716 12.32-122.181 35.63-35.483 22.682-63.938 54.662-82.286 92.478-3.615 7.454-.503 16.428 6.95 20.044 7.459 3.614 16.426.502 20.043-6.948C367.803 72.611 435.808 30.001 512.001 30.001c108.701 0 197.133 88.434 197.133 197.134S620.702 424.27 512.001 424.27c-108.703 0-197.135-88.435-197.135-197.135 0-7.66.444-15.378 1.32-22.939.955-8.23-4.946-15.675-13.175-16.627-8.238-.962-15.673 4.944-16.625 13.175a230.314 230.314 0 0 0-1.52 26.394c0 91.026 53.829 169.702 131.321 205.906v76.083H168.544c-19.41 0-35.204 15.793-35.204 35.204v42.174c0 8.285 6.714 15.002 15 15.002s15-6.716 15-15.002v-42.174a5.208 5.208 0 0 1 5.204-5.202h195.225l136.94 156.504A15.012 15.012 0 0 0 512 700.755c4.326 0 8.439-1.869 11.29-5.122l136.94-156.504h195.226a5.208 5.208 0 0 1 5.204 5.202v181.133c0 8.283 6.715 15 15 15 8.287 0 15-6.716 15-15V544.331c-.002-19.416-15.793-35.207-35.204-35.207zM512 662.969 403.633 539.122h27.551c8.287 0 15.002-6.715 15.002-15v-79.587c20.842 6.321 42.933 9.735 65.81 9.735 22.879 0 44.974-3.414 65.812-9.735v79.587c0 8.285 6.715 15 15.002 15h27.551L512 662.969z"/>
  <path d="M212.99 878.535h40.408c8.285 0 15-6.716 15-15s-6.715-15-15-15H212.99c-8.285 0-15 6.716-15 15s6.716 15 15 15zM358.455 848.536h-40.406c-8.285 0-15 6.716-15 15s6.715 15 15 15h40.406c8.287 0 15-6.716 15-15s-6.716-15-15-15zM463.512 878.535c8.285 0 15-6.716 15-15s-6.715-15-15-15h-40.408c-8.285 0-15 6.716-15 15s6.715 15 15 15h40.408zM568.567 878.535c8.285 0 15-6.716 15-15s-6.715-15-15-15h-40.406c-8.287 0-15 6.716-15 15s6.713 15 15 15h40.406zM212.99 959.356h161.627c8.285 0 15-6.715 15-15 0-8.283-6.715-15-15-15H212.99c-8.285 0-15 6.716-15 15s6.716 15 15 15zM634.381 903.943c0 30.55 24.858 55.406 55.408 55.406 15.923 0 30.288-6.762 40.406-17.552 10.116 10.79 24.481 17.552 40.406 17.552 30.55 0 55.406-24.856 55.406-55.406 0-30.552-24.856-55.408-55.406-55.408-15.925 0-30.29 6.762-40.406 17.554-10.117-10.792-24.483-17.554-40.406-17.554-30.55 0-55.408 24.856-55.408 55.408zm136.221-25.408c14.009 0 25.406 11.397 25.406 25.408 0 14.009-11.397 25.406-25.406 25.406-14.011 0-25.406-11.397-25.406-25.406 0-14.011 11.396-25.408 25.406-25.408zm-55.406 25.408c0 14.009-11.397 25.406-25.406 25.406-14.011 0-25.406-11.397-25.406-25.406 0-14.011 11.396-25.408 25.406-25.408s25.406 11.397 25.406 25.408zM462.307 305.638c-6.927-4.535-16.225-2.589-20.763 4.341-4.537 6.932-2.593 16.23 4.341 20.763 19.396 12.688 32.631 16.446 49.759 17.392v16.532c0 8.285 6.715 15 15 15s15-6.715 15-15v-17.719c34-6.614 53.859-34.622 58.256-60.785 5.647-33.587-11.926-62.793-44.767-74.401a660.469 660.469 0 0 1-13.489-4.924v-71.944c11.445 2.694 18.266 8.488 18.853 9.002 6.093 5.52 15.51 5.108 21.094-.95 5.617-6.09 5.233-15.58-.858-21.196-.861-.792-15.362-13.85-39.089-17.374V89.607c0-8.284-6.715-15-15-15s-15 6.716-15 15v15.918a92.832 92.832 0 0 0-6.972 1.792c-21.621 6.514-37.776 25.018-42.161 48.294-3.999 21.216 2.794 41.674 17.728 53.386 7.945 6.232 17.84 11.941 31.406 17.973v91.125c-11.829-.843-19.95-3.699-33.337-12.456zm20.447-120.245c-6.089-4.774-8.68-14.058-6.764-24.226 1.726-9.156 7.799-20.166 19.653-24.54v56.982c-4.855-2.622-9.247-5.358-12.89-8.216zm46.382 54.656c28.112 9.936 26.377 34.004 25.178 41.143-2.348 13.979-12.112 28.796-28.67 34.628v-77.021c1.161.417 2.299.828 3.493 1.251z"/>
</svg>
