<svg xmlns="http://www.w3.org/2000/svg" viewBox="0 0 1024 1024">
  <path d="M493.221 414.384a747.294 747.294 0 0 1-10.604-3.836v-64.545c11.774 4.667 20.045 11.205 20.37 11.465 8.51 6.978 21.071 5.767 28.091-2.719 7.042-8.512 5.85-21.116-2.662-28.16-1.17-.967-19.752-16.064-45.797-22.429v-9.801c0-11.046-8.956-20.001-19.999-20.001-11.045 0-20.001 8.955-20.001 20.001v8.876c-2.117.455-4.244.969-6.385 1.613-22.992 6.927-39.59 26.306-44.403 51.842-4.674 24.81 3.41 49.552 20.597 63.031 7.843 6.149 17.401 11.789 30.193 17.651v84.588c-9.057-1.271-15.848-4.345-26.668-11.423-9.242-6.049-21.636-3.458-27.686 5.787-6.045 9.243-3.458 21.637 5.789 27.686 18.997 12.427 32.393 16.792 48.565 18.185v12.436c0 11.046 8.956 20.001 20.001 20.001 11.043 0 19.999-8.955 19.999-20.001V560.28c33.265-8.432 54.587-36.846 59.297-64.859 6.054-36.034-13.515-68.599-48.697-81.037zm-50.602-22.261c-1.982-1.269-3.831-2.56-5.508-3.875-5.398-4.235-7.854-14.166-5.972-24.15.631-3.348 3.184-13.29 11.48-18.567v46.592zm59.849 96.671c-1.829 10.865-8.565 22.287-19.851 28.738v-64.373c21.707 9.128 21.166 27.803 19.851 35.635z"/>
  <path d="m947.023 427.31-127.022-83.882V20c0-11.046-8.956-20-20.001-20H320c-11.045 0-20.001 8.954-20.001 20v76H224c-11.045 0-20.001 8.954-20.001 20v227.429L76.978 427.311A20.002 20.002 0 0 0 68 443.999v560c0 11.046 8.956 20.001 20 20.001h334c11.045 0 20.001-8.955 20.001-20.001S433.045 984 422 984H136.286l291.589-291.588 73.104 48.278C504.32 742.895 508.16 744 512 744s7.68-1.104 11.023-3.31l73.104-48.278L887.716 984H602c-11.045 0-20.001 8.955-20.001 19.999 0 11.046 8.956 20.001 20.001 20.001h334c11.045 0 19.999-8.955 19.999-20.001v-560a20.01 20.01 0 0 0-8.976-16.689zm-47.316 16.689-79.706 52.637V391.363l79.706 52.635zM340.001 40h439.998v483.052l-55.998 36.983V116c0-11.046-8.956-20-20.001-20H340.001V40zM203.999 391.364v105.273L124.294 444l79.705-52.635zM108 955.716v-474.54l285.801 188.738L108 955.716zm404-255.684L244.001 523.05V136h439.998v450.448L512 700.032zm404.001-218.856v474.54L630.199 669.912l285.802-188.736z"/>
  <path d="M512 984c-5.261 0-10.419 2.139-14.14 5.861-3.719 3.719-5.861 8.88-5.861 14.139a20.14 20.14 0 0 0 5.861 14.14c3.723 3.721 8.88 5.861 14.14 5.861s10.419-2.139 14.139-5.861c3.719-3.719 5.862-8.88 5.862-14.14s-2.141-10.419-5.862-14.139C522.42 986.14 517.261 984 512 984z"/>
</svg>
